ISO-10303-21;
HEADER;
/* Generated by software containing ST-Developer
 * from STEP Tools, Inc. (www.steptools.com) 
 */
/* OPTION: using custom renumber hook */

FILE_DESCRIPTION(
/* description */ ('STEP AP242 Edition 2',
'CAx-IF Rec.Pracs.---Representation and Presentation of Product Manufa
cturing Information (PMI)---4.0---2014-10-13',
'CAx-IF Rec.Pracs.---3D Tessellated Geometry---0.4---2014-09-14','2;1',
'CAx-IF Rec.Pracs.---User Defined Attributes---1.5---2016-08-15'),
/* implementation_level */ '2;1');

FILE_NAME(
/* name */ 'Part Studio 4 - Part 1',
/* time_stamp */ '2026-08-24T15:48:28Z',
/* author */ (''),
/* organization */ (''),
/* preprocessor_version */ 'ST-DEVELOPER v20',
/* originating_system */ 'ONSHAPE BY PTC INC, 1.219',
/* authorisation */ '  ');

FILE_SCHEMA (('AP242_MANAGED_MODEL_BASED_3D_ENGINEERING_MIM_LF { 1 0 10303 442 3 1 4 }'));
ENDSEC;

DATA;
#10=SHAPE_REPRESENTATION_RELATIONSHIP('','',#551,#11);
#11=ADVANCED_BREP_SHAPE_REPRESENTATION('',(#549),#901);
#12=CYLINDRICAL_SURFACE('',#566,0.0025);
#13=CYLINDRICAL_SURFACE('',#568,0.0025);
#14=CYLINDRICAL_SURFACE('',#571,0.0016);
#15=CYLINDRICAL_SURFACE('',#573,0.0016);
#16=CYLINDRICAL_SURFACE('',#575,0.005);
#17=CYLINDRICAL_SURFACE('',#579,0.005);
#18=CYLINDRICAL_SURFACE('',#582,0.0026);
#19=CYLINDRICAL_SURFACE('',#584,0.0026);
#20=CIRCLE('',#557,0.0025);
#21=CIRCLE('',#559,0.0025);
#22=CIRCLE('',#561,0.0016);
#23=CIRCLE('',#562,0.0026);
#24=CIRCLE('',#564,0.0016);
#25=CIRCLE('',#565,0.0026);
#26=CIRCLE('',#567,0.0025);
#27=CIRCLE('',#569,0.0025);
#28=CIRCLE('',#572,0.0016);
#29=CIRCLE('',#574,0.0016);
#30=CIRCLE('',#576,0.005);
#31=CIRCLE('',#577,0.005);
#32=CIRCLE('',#580,0.005);
#33=CIRCLE('',#581,0.005);
#34=CIRCLE('',#583,0.0026);
#35=CIRCLE('',#585,0.0026);
#36=ORIENTED_EDGE('',*,*,#172,.T.);
#37=ORIENTED_EDGE('',*,*,#173,.T.);
#38=ORIENTED_EDGE('',*,*,#174,.F.);
#39=ORIENTED_EDGE('',*,*,#175,.F.);
#40=ORIENTED_EDGE('',*,*,#176,.F.);
#41=ORIENTED_EDGE('',*,*,#177,.T.);
#42=ORIENTED_EDGE('',*,*,#178,.F.);
#43=ORIENTED_EDGE('',*,*,#179,.F.);
#44=ORIENTED_EDGE('',*,*,#180,.T.);
#45=ORIENTED_EDGE('',*,*,#181,.T.);
#46=ORIENTED_EDGE('',*,*,#182,.F.);
#47=ORIENTED_EDGE('',*,*,#183,.F.);
#48=ORIENTED_EDGE('',*,*,#184,.F.);
#49=ORIENTED_EDGE('',*,*,#185,.T.);
#50=ORIENTED_EDGE('',*,*,#186,.T.);
#51=ORIENTED_EDGE('',*,*,#187,.F.);
#52=ORIENTED_EDGE('',*,*,#188,.T.);
#53=ORIENTED_EDGE('',*,*,#189,.T.);
#54=ORIENTED_EDGE('',*,*,#190,.T.);
#55=ORIENTED_EDGE('',*,*,#191,.F.);
#56=ORIENTED_EDGE('',*,*,#192,.T.);
#57=ORIENTED_EDGE('',*,*,#193,.F.);
#58=ORIENTED_EDGE('',*,*,#194,.T.);
#59=ORIENTED_EDGE('',*,*,#188,.F.);
#60=ORIENTED_EDGE('',*,*,#195,.T.);
#61=ORIENTED_EDGE('',*,*,#189,.F.);
#62=ORIENTED_EDGE('',*,*,#196,.F.);
#63=ORIENTED_EDGE('',*,*,#197,.T.);
#64=ORIENTED_EDGE('',*,*,#198,.T.);
#65=ORIENTED_EDGE('',*,*,#199,.F.);
#66=ORIENTED_EDGE('',*,*,#190,.F.);
#67=ORIENTED_EDGE('',*,*,#200,.T.);
#68=ORIENTED_EDGE('',*,*,#192,.F.);
#69=ORIENTED_EDGE('',*,*,#201,.T.);
#70=ORIENTED_EDGE('',*,*,#202,.F.);
#71=ORIENTED_EDGE('',*,*,#203,.F.);
#72=ORIENTED_EDGE('',*,*,#204,.F.);
#73=ORIENTED_EDGE('',*,*,#205,.F.);
#74=ORIENTED_EDGE('',*,*,#206,.F.);
#75=ORIENTED_EDGE('',*,*,#203,.T.);
#76=ORIENTED_EDGE('',*,*,#207,.T.);
#77=ORIENTED_EDGE('',*,*,#208,.T.);
#78=ORIENTED_EDGE('',*,*,#209,.F.);
#79=ORIENTED_EDGE('',*,*,#210,.F.);
#80=ORIENTED_EDGE('',*,*,#211,.F.);
#81=ORIENTED_EDGE('',*,*,#208,.F.);
#82=ORIENTED_EDGE('',*,*,#191,.T.);
#83=ORIENTED_EDGE('',*,*,#212,.F.);
#84=ORIENTED_EDGE('',*,*,#193,.T.);
#85=ORIENTED_EDGE('',*,*,#213,.F.);
#86=ORIENTED_EDGE('',*,*,#213,.T.);
#87=ORIENTED_EDGE('',*,*,#212,.T.);
#88=ORIENTED_EDGE('',*,*,#180,.F.);
#89=ORIENTED_EDGE('',*,*,#214,.F.);
#90=ORIENTED_EDGE('',*,*,#209,.T.);
#91=ORIENTED_EDGE('',*,*,#207,.F.);
#92=ORIENTED_EDGE('',*,*,#202,.T.);
#93=ORIENTED_EDGE('',*,*,#215,.T.);
#94=ORIENTED_EDGE('',*,*,#185,.F.);
#95=ORIENTED_EDGE('',*,*,#216,.F.);
#96=ORIENTED_EDGE('',*,*,#172,.F.);
#97=ORIENTED_EDGE('',*,*,#217,.T.);
#98=ORIENTED_EDGE('',*,*,#214,.T.);
#99=ORIENTED_EDGE('',*,*,#183,.T.);
#100=ORIENTED_EDGE('',*,*,#218,.F.);
#101=ORIENTED_EDGE('',*,*,#210,.T.);
#102=ORIENTED_EDGE('',*,*,#186,.F.);
#103=ORIENTED_EDGE('',*,*,#215,.F.);
#104=ORIENTED_EDGE('',*,*,#205,.T.);
#105=ORIENTED_EDGE('',*,*,#219,.T.);
#106=ORIENTED_EDGE('',*,*,#201,.F.);
#107=ORIENTED_EDGE('',*,*,#200,.F.);
#108=ORIENTED_EDGE('',*,*,#218,.T.);
#109=ORIENTED_EDGE('',*,*,#182,.T.);
#110=ORIENTED_EDGE('',*,*,#220,.F.);
#111=ORIENTED_EDGE('',*,*,#221,.F.);
#112=ORIENTED_EDGE('',*,*,#222,.F.);
#113=ORIENTED_EDGE('',*,*,#178,.T.);
#114=ORIENTED_EDGE('',*,*,#223,.F.);
#115=ORIENTED_EDGE('',*,*,#198,.F.);
#116=ORIENTED_EDGE('',*,*,#224,.T.);
#117=ORIENTED_EDGE('',*,*,#174,.T.);
#118=ORIENTED_EDGE('',*,*,#225,.F.);
#119=ORIENTED_EDGE('',*,*,#226,.F.);
#120=ORIENTED_EDGE('',*,*,#227,.F.);
#121=ORIENTED_EDGE('',*,*,#187,.T.);
#122=ORIENTED_EDGE('',*,*,#219,.F.);
#123=ORIENTED_EDGE('',*,*,#204,.T.);
#124=ORIENTED_EDGE('',*,*,#206,.T.);
#125=ORIENTED_EDGE('',*,*,#211,.T.);
#126=ORIENTED_EDGE('',*,*,#177,.F.);
#127=ORIENTED_EDGE('',*,*,#228,.F.);
#128=ORIENTED_EDGE('',*,*,#199,.T.);
#129=ORIENTED_EDGE('',*,*,#223,.T.);
#130=ORIENTED_EDGE('',*,*,#195,.F.);
#131=ORIENTED_EDGE('',*,*,#194,.F.);
#132=ORIENTED_EDGE('',*,*,#228,.T.);
#133=ORIENTED_EDGE('',*,*,#176,.T.);
#134=ORIENTED_EDGE('',*,*,#229,.F.);
#135=ORIENTED_EDGE('',*,*,#196,.T.);
#136=ORIENTED_EDGE('',*,*,#229,.T.);
#137=ORIENTED_EDGE('',*,*,#175,.T.);
#138=ORIENTED_EDGE('',*,*,#224,.F.);
#139=ORIENTED_EDGE('',*,*,#197,.F.);
#140=ORIENTED_EDGE('',*,*,#222,.T.);
#141=ORIENTED_EDGE('',*,*,#230,.F.);
#142=ORIENTED_EDGE('',*,*,#231,.F.);
#143=ORIENTED_EDGE('',*,*,#179,.T.);
#144=ORIENTED_EDGE('',*,*,#220,.T.);
#145=ORIENTED_EDGE('',*,*,#181,.F.);
#146=ORIENTED_EDGE('',*,*,#232,.F.);
#147=ORIENTED_EDGE('',*,*,#233,.T.);
#148=ORIENTED_EDGE('',*,*,#221,.T.);
#149=ORIENTED_EDGE('',*,*,#233,.F.);
#150=ORIENTED_EDGE('',*,*,#234,.F.);
#151=ORIENTED_EDGE('',*,*,#230,.T.);
#152=ORIENTED_EDGE('',*,*,#231,.T.);
#153=ORIENTED_EDGE('',*,*,#234,.T.);
#154=ORIENTED_EDGE('',*,*,#232,.T.);
#155=ORIENTED_EDGE('',*,*,#217,.F.);
#156=ORIENTED_EDGE('',*,*,#227,.T.);
#157=ORIENTED_EDGE('',*,*,#235,.F.);
#158=ORIENTED_EDGE('',*,*,#236,.F.);
#159=ORIENTED_EDGE('',*,*,#184,.T.);
#160=ORIENTED_EDGE('',*,*,#225,.T.);
#161=ORIENTED_EDGE('',*,*,#173,.F.);
#162=ORIENTED_EDGE('',*,*,#237,.F.);
#163=ORIENTED_EDGE('',*,*,#238,.T.);
#164=ORIENTED_EDGE('',*,*,#226,.T.);
#165=ORIENTED_EDGE('',*,*,#238,.F.);
#166=ORIENTED_EDGE('',*,*,#239,.F.);
#167=ORIENTED_EDGE('',*,*,#235,.T.);
#168=ORIENTED_EDGE('',*,*,#236,.T.);
#169=ORIENTED_EDGE('',*,*,#239,.T.);
#170=ORIENTED_EDGE('',*,*,#237,.T.);
#171=ORIENTED_EDGE('',*,*,#216,.T.);
#172=EDGE_CURVE('',#240,#241,#288,.T.);
#173=EDGE_CURVE('',#241,#242,#289,.T.);
#174=EDGE_CURVE('',#243,#242,#290,.T.);
#175=EDGE_CURVE('',#244,#243,#291,.T.);
#176=EDGE_CURVE('',#245,#244,#292,.T.);
#177=EDGE_CURVE('',#245,#246,#293,.T.);
#178=EDGE_CURVE('',#247,#246,#294,.T.);
#179=EDGE_CURVE('',#240,#247,#295,.T.);
#180=EDGE_CURVE('',#248,#249,#296,.T.);
#181=EDGE_CURVE('',#249,#250,#297,.T.);
#182=EDGE_CURVE('',#251,#250,#298,.T.);
#183=EDGE_CURVE('',#248,#251,#299,.T.);
#184=EDGE_CURVE('',#252,#253,#300,.T.);
#185=EDGE_CURVE('',#252,#254,#301,.T.);
#186=EDGE_CURVE('',#254,#255,#302,.T.);
#187=EDGE_CURVE('',#253,#255,#303,.T.);
#188=EDGE_CURVE('',#256,#256,#20,.T.);
#189=EDGE_CURVE('',#257,#257,#21,.T.);
#190=EDGE_CURVE('',#258,#258,#22,.T.);
#191=EDGE_CURVE('',#259,#259,#23,.T.);
#192=EDGE_CURVE('',#260,#260,#24,.T.);
#193=EDGE_CURVE('',#261,#261,#25,.T.);
#194=EDGE_CURVE('',#262,#262,#26,.T.);
#195=EDGE_CURVE('',#263,#263,#27,.T.);
#196=EDGE_CURVE('',#264,#265,#304,.T.);
#197=EDGE_CURVE('',#264,#266,#305,.T.);
#198=EDGE_CURVE('',#266,#267,#306,.T.);
#199=EDGE_CURVE('',#265,#267,#307,.T.);
#200=EDGE_CURVE('',#268,#268,#28,.T.);
#201=EDGE_CURVE('',#269,#269,#29,.T.);
#202=EDGE_CURVE('',#270,#271,#30,.F.);
#203=EDGE_CURVE('',#272,#270,#308,.F.);
#204=EDGE_CURVE('',#273,#272,#31,.T.);
#205=EDGE_CURVE('',#271,#273,#309,.T.);
#206=EDGE_CURVE('',#272,#274,#310,.T.);
#207=EDGE_CURVE('',#270,#275,#311,.T.);
#208=EDGE_CURVE('',#275,#274,#312,.T.);
#209=EDGE_CURVE('',#276,#275,#32,.F.);
#210=EDGE_CURVE('',#277,#276,#313,.F.);
#211=EDGE_CURVE('',#274,#277,#33,.T.);
#212=EDGE_CURVE('',#278,#278,#34,.T.);
#213=EDGE_CURVE('',#279,#279,#35,.T.);
#214=EDGE_CURVE('',#276,#248,#314,.T.);
#215=EDGE_CURVE('',#271,#254,#315,.T.);
#216=EDGE_CURVE('',#241,#252,#316,.T.);
#217=EDGE_CURVE('',#240,#249,#317,.T.);
#218=EDGE_CURVE('',#277,#251,#318,.T.);
#219=EDGE_CURVE('',#273,#255,#319,.T.);
#220=EDGE_CURVE('',#280,#250,#320,.T.);
#221=EDGE_CURVE('',#281,#280,#321,.T.);
#222=EDGE_CURVE('',#247,#281,#322,.T.);
#223=EDGE_CURVE('',#267,#246,#323,.T.);
#224=EDGE_CURVE('',#266,#243,#324,.T.);
#225=EDGE_CURVE('',#282,#242,#325,.T.);
#226=EDGE_CURVE('',#283,#282,#326,.T.);
#227=EDGE_CURVE('',#253,#283,#327,.T.);
#228=EDGE_CURVE('',#265,#245,#328,.T.);
#229=EDGE_CURVE('',#264,#244,#329,.T.);
#230=EDGE_CURVE('',#284,#281,#330,.T.);
#231=EDGE_CURVE('',#240,#284,#331,.T.);
#232=EDGE_CURVE('',#285,#249,#332,.T.);
#233=EDGE_CURVE('',#285,#280,#333,.T.);
#234=EDGE_CURVE('',#284,#285,#334,.T.);
#235=EDGE_CURVE('',#286,#283,#335,.T.);
#236=EDGE_CURVE('',#252,#286,#336,.T.);
#237=EDGE_CURVE('',#287,#241,#337,.T.);
#238=EDGE_CURVE('',#287,#282,#338,.T.);
#239=EDGE_CURVE('',#286,#287,#339,.T.);
#240=VERTEX_POINT('',#754);
#241=VERTEX_POINT('',#755);
#242=VERTEX_POINT('',#757);
#243=VERTEX_POINT('',#759);
#244=VERTEX_POINT('',#761);
#245=VERTEX_POINT('',#763);
#246=VERTEX_POINT('',#765);
#247=VERTEX_POINT('',#767);
#248=VERTEX_POINT('',#771);
#249=VERTEX_POINT('',#772);
#250=VERTEX_POINT('',#774);
#251=VERTEX_POINT('',#776);
#252=VERTEX_POINT('',#780);
#253=VERTEX_POINT('',#781);
#254=VERTEX_POINT('',#783);
#255=VERTEX_POINT('',#785);
#256=VERTEX_POINT('',#789);
#257=VERTEX_POINT('',#792);
#258=VERTEX_POINT('',#795);
#259=VERTEX_POINT('',#797);
#260=VERTEX_POINT('',#800);
#261=VERTEX_POINT('',#802);
#262=VERTEX_POINT('',#805);
#263=VERTEX_POINT('',#808);
#264=VERTEX_POINT('',#811);
#265=VERTEX_POINT('',#812);
#266=VERTEX_POINT('',#814);
#267=VERTEX_POINT('',#816);
#268=VERTEX_POINT('',#820);
#269=VERTEX_POINT('',#823);
#270=VERTEX_POINT('',#826);
#271=VERTEX_POINT('',#827);
#272=VERTEX_POINT('',#829);
#273=VERTEX_POINT('',#831);
#274=VERTEX_POINT('',#835);
#275=VERTEX_POINT('',#837);
#276=VERTEX_POINT('',#841);
#277=VERTEX_POINT('',#843);
#278=VERTEX_POINT('',#847);
#279=VERTEX_POINT('',#850);
#280=VERTEX_POINT('',#862);
#281=VERTEX_POINT('',#864);
#282=VERTEX_POINT('',#869);
#283=VERTEX_POINT('',#871);
#284=VERTEX_POINT('',#880);
#285=VERTEX_POINT('',#884);
#286=VERTEX_POINT('',#891);
#287=VERTEX_POINT('',#895);
#288=LINE('',#753,#340);
#289=LINE('',#756,#341);
#290=LINE('',#758,#342);
#291=LINE('',#760,#343);
#292=LINE('',#762,#344);
#293=LINE('',#764,#345);
#294=LINE('',#766,#346);
#295=LINE('',#768,#347);
#296=LINE('',#770,#348);
#297=LINE('',#773,#349);
#298=LINE('',#775,#350);
#299=LINE('',#777,#351);
#300=LINE('',#779,#352);
#301=LINE('',#782,#353);
#302=LINE('',#784,#354);
#303=LINE('',#786,#355);
#304=LINE('',#810,#356);
#305=LINE('',#813,#357);
#306=LINE('',#815,#358);
#307=LINE('',#817,#359);
#308=LINE('',#828,#360);
#309=LINE('',#832,#361);
#310=LINE('',#834,#362);
#311=LINE('',#836,#363);
#312=LINE('',#838,#364);
#313=LINE('',#842,#365);
#314=LINE('',#852,#366);
#315=LINE('',#853,#367);
#316=LINE('',#854,#368);
#317=LINE('',#855,#369);
#318=LINE('',#857,#370);
#319=LINE('',#859,#371);
#320=LINE('',#861,#372);
#321=LINE('',#863,#373);
#322=LINE('',#865,#374);
#323=LINE('',#866,#375);
#324=LINE('',#867,#376);
#325=LINE('',#868,#377);
#326=LINE('',#870,#378);
#327=LINE('',#872,#379);
#328=LINE('',#874,#380);
#329=LINE('',#876,#381);
#330=LINE('',#879,#382);
#331=LINE('',#881,#383);
#332=LINE('',#883,#384);
#333=LINE('',#885,#385);
#334=LINE('',#887,#386);
#335=LINE('',#890,#387);
#336=LINE('',#892,#388);
#337=LINE('',#894,#389);
#338=LINE('',#896,#390);
#339=LINE('',#898,#391);
#340=VECTOR('',#605,1.);
#341=VECTOR('',#606,1.);
#342=VECTOR('',#607,1.);
#343=VECTOR('',#608,1.);
#344=VECTOR('',#609,1.);
#345=VECTOR('',#610,1.);
#346=VECTOR('',#611,1.);
#347=VECTOR('',#612,1.);
#348=VECTOR('',#615,1.);
#349=VECTOR('',#616,1.);
#350=VECTOR('',#617,1.);
#351=VECTOR('',#618,1.);
#352=VECTOR('',#621,1.);
#353=VECTOR('',#622,1.);
#354=VECTOR('',#623,1.);
#355=VECTOR('',#624,1.);
#356=VECTOR('',#655,1.);
#357=VECTOR('',#656,1.);
#358=VECTOR('',#657,1.);
#359=VECTOR('',#658,1.);
#360=VECTOR('',#671,1.);
#361=VECTOR('',#674,1.);
#362=VECTOR('',#677,1.);
#363=VECTOR('',#678,1.);
#364=VECTOR('',#679,1.);
#365=VECTOR('',#684,1.);
#366=VECTOR('',#697,1.);
#367=VECTOR('',#698,1.);
#368=VECTOR('',#699,1.);
#369=VECTOR('',#700,1.);
#370=VECTOR('',#703,1.);
#371=VECTOR('',#706,1.);
#372=VECTOR('',#709,1.);
#373=VECTOR('',#710,1.);
#374=VECTOR('',#711,1.);
#375=VECTOR('',#712,1.);
#376=VECTOR('',#713,1.);
#377=VECTOR('',#714,1.);
#378=VECTOR('',#715,1.);
#379=VECTOR('',#716,1.);
#380=VECTOR('',#719,1.);
#381=VECTOR('',#722,1.);
#382=VECTOR('',#727,1.);
#383=VECTOR('',#728,1.);
#384=VECTOR('',#731,1.);
#385=VECTOR('',#732,1.);
#386=VECTOR('',#735,1.);
#387=VECTOR('',#740,1.);
#388=VECTOR('',#741,1.);
#389=VECTOR('',#744,1.);
#390=VECTOR('',#745,1.);
#391=VECTOR('',#748,1.);
#392=EDGE_LOOP('',(#36,#37,#38,#39,#40,#41,#42,#43));
#393=EDGE_LOOP('',(#44,#45,#46,#47));
#394=EDGE_LOOP('',(#48,#49,#50,#51));
#395=EDGE_LOOP('',(#52));
#396=EDGE_LOOP('',(#53));
#397=EDGE_LOOP('',(#54));
#398=EDGE_LOOP('',(#55));
#399=EDGE_LOOP('',(#56));
#400=EDGE_LOOP('',(#57));
#401=EDGE_LOOP('',(#58));
#402=EDGE_LOOP('',(#59));
#403=EDGE_LOOP('',(#60));
#404=EDGE_LOOP('',(#61));
#405=EDGE_LOOP('',(#62,#63,#64,#65));
#406=EDGE_LOOP('',(#66));
#407=EDGE_LOOP('',(#67));
#408=EDGE_LOOP('',(#68));
#409=EDGE_LOOP('',(#69));
#410=EDGE_LOOP('',(#70,#71,#72,#73));
#411=EDGE_LOOP('',(#74,#75,#76,#77));
#412=EDGE_LOOP('',(#78,#79,#80,#81));
#413=EDGE_LOOP('',(#82));
#414=EDGE_LOOP('',(#83));
#415=EDGE_LOOP('',(#84));
#416=EDGE_LOOP('',(#85));
#417=EDGE_LOOP('',(#86));
#418=EDGE_LOOP('',(#87));
#419=EDGE_LOOP('',(#88,#89,#90,#91,#92,#93,#94,#95,#96,#97));
#420=EDGE_LOOP('',(#98,#99,#100,#101));
#421=EDGE_LOOP('',(#102,#103,#104,#105));
#422=EDGE_LOOP('',(#106));
#423=EDGE_LOOP('',(#107));
#424=EDGE_LOOP('',(#108,#109,#110,#111,#112,#113,#114,#115,#116,#117,#118,
#119,#120,#121,#122,#123,#124,#125));
#425=EDGE_LOOP('',(#126,#127,#128,#129));
#426=EDGE_LOOP('',(#130));
#427=EDGE_LOOP('',(#131));
#428=EDGE_LOOP('',(#132,#133,#134,#135));
#429=EDGE_LOOP('',(#136,#137,#138,#139));
#430=EDGE_LOOP('',(#140,#141,#142,#143));
#431=EDGE_LOOP('',(#144,#145,#146,#147));
#432=EDGE_LOOP('',(#148,#149,#150,#151));
#433=EDGE_LOOP('',(#152,#153,#154,#155));
#434=EDGE_LOOP('',(#156,#157,#158,#159));
#435=EDGE_LOOP('',(#160,#161,#162,#163));
#436=EDGE_LOOP('',(#164,#165,#166,#167));
#437=EDGE_LOOP('',(#168,#169,#170,#171));
#438=FACE_BOUND('',#392,.T.);
#439=FACE_BOUND('',#393,.T.);
#440=FACE_BOUND('',#394,.T.);
#441=FACE_BOUND('',#395,.T.);
#442=FACE_BOUND('',#396,.T.);
#443=FACE_BOUND('',#397,.T.);
#444=FACE_BOUND('',#398,.T.);
#445=FACE_BOUND('',#399,.T.);
#446=FACE_BOUND('',#400,.T.);
#447=FACE_BOUND('',#401,.T.);
#448=FACE_BOUND('',#402,.T.);
#449=FACE_BOUND('',#403,.T.);
#450=FACE_BOUND('',#404,.T.);
#451=FACE_BOUND('',#405,.T.);
#452=FACE_BOUND('',#406,.T.);
#453=FACE_BOUND('',#407,.T.);
#454=FACE_BOUND('',#408,.T.);
#455=FACE_BOUND('',#409,.T.);
#456=FACE_BOUND('',#410,.T.);
#457=FACE_BOUND('',#411,.T.);
#458=FACE_BOUND('',#412,.T.);
#459=FACE_BOUND('',#413,.T.);
#460=FACE_BOUND('',#414,.T.);
#461=FACE_BOUND('',#415,.T.);
#462=FACE_BOUND('',#416,.T.);
#463=FACE_BOUND('',#417,.T.);
#464=FACE_BOUND('',#418,.T.);
#465=FACE_BOUND('',#419,.T.);
#466=FACE_BOUND('',#420,.T.);
#467=FACE_BOUND('',#421,.T.);
#468=FACE_BOUND('',#422,.T.);
#469=FACE_BOUND('',#423,.T.);
#470=FACE_BOUND('',#424,.T.);
#471=FACE_BOUND('',#425,.T.);
#472=FACE_BOUND('',#426,.T.);
#473=FACE_BOUND('',#427,.T.);
#474=FACE_BOUND('',#428,.T.);
#475=FACE_BOUND('',#429,.T.);
#476=FACE_BOUND('',#430,.T.);
#477=FACE_BOUND('',#431,.T.);
#478=FACE_BOUND('',#432,.T.);
#479=FACE_BOUND('',#433,.T.);
#480=FACE_BOUND('',#434,.T.);
#481=FACE_BOUND('',#435,.T.);
#482=FACE_BOUND('',#436,.T.);
#483=FACE_BOUND('',#437,.T.);
#484=PLANE('',#553);
#485=PLANE('',#554);
#486=PLANE('',#555);
#487=PLANE('',#556);
#488=PLANE('',#558);
#489=PLANE('',#560);
#490=PLANE('',#563);
#491=PLANE('',#570);
#492=PLANE('',#578);
#493=PLANE('',#586);
#494=PLANE('',#587);
#495=PLANE('',#588);
#496=PLANE('',#589);
#497=PLANE('',#590);
#498=PLANE('',#591);
#499=PLANE('',#592);
#500=PLANE('',#593);
#501=PLANE('',#594);
#502=PLANE('',#595);
#503=PLANE('',#596);
#504=PLANE('',#597);
#505=PLANE('',#598);
#506=PLANE('',#599);
#507=PLANE('',#600);
#508=ADVANCED_FACE('',(#438),#484,.T.);
#509=ADVANCED_FACE('',(#439),#485,.T.);
#510=ADVANCED_FACE('',(#440),#486,.T.);
#511=ADVANCED_FACE('',(#441),#487,.T.);
#512=ADVANCED_FACE('',(#442),#488,.T.);
#513=ADVANCED_FACE('',(#443,#444),#489,.F.);
#514=ADVANCED_FACE('',(#445,#446),#490,.F.);
#515=ADVANCED_FACE('',(#447,#448),#12,.T.);
#516=ADVANCED_FACE('',(#449,#450),#13,.T.);
#517=ADVANCED_FACE('',(#451),#491,.F.);
#518=ADVANCED_FACE('',(#452,#453),#14,.F.);
#519=ADVANCED_FACE('',(#454,#455),#15,.F.);
#520=ADVANCED_FACE('',(#456),#16,.T.);
#521=ADVANCED_FACE('',(#457),#492,.T.);
#522=ADVANCED_FACE('',(#458),#17,.T.);
#523=ADVANCED_FACE('',(#459,#460),#18,.F.);
#524=ADVANCED_FACE('',(#461,#462),#19,.F.);
#525=ADVANCED_FACE('',(#463,#464,#465),#493,.F.);
#526=ADVANCED_FACE('',(#466),#494,.T.);
#527=ADVANCED_FACE('',(#467),#495,.F.);
#528=ADVANCED_FACE('',(#468,#469,#470),#496,.T.);
#529=ADVANCED_FACE('',(#471),#497,.F.);
#530=ADVANCED_FACE('',(#472,#473,#474),#498,.T.);
#531=ADVANCED_FACE('',(#475),#499,.T.);
#532=ADVANCED_FACE('',(#476),#500,.F.);
#533=ADVANCED_FACE('',(#477),#501,.F.);
#534=ADVANCED_FACE('',(#478),#502,.F.);
#535=ADVANCED_FACE('',(#479),#503,.F.);
#536=ADVANCED_FACE('',(#480),#504,.F.);
#537=ADVANCED_FACE('',(#481),#505,.F.);
#538=ADVANCED_FACE('',(#482),#506,.F.);
#539=ADVANCED_FACE('',(#483),#507,.F.);
#540=CLOSED_SHELL('',(#508,#509,#510,#511,#512,#513,#514,#515,#516,#517,
#518,#519,#520,#521,#522,#523,#524,#525,#526,#527,#528,#529,#530,#531,#532,
#533,#534,#535,#536,#537,#538,#539));
#541=STYLED_ITEM('',(#542),#549);
#542=PRESENTATION_STYLE_ASSIGNMENT((#543));
#543=SURFACE_STYLE_USAGE(.BOTH.,#544);
#544=SURFACE_SIDE_STYLE('',(#545));
#545=SURFACE_STYLE_FILL_AREA(#546);
#546=FILL_AREA_STYLE('',(#547));
#547=FILL_AREA_STYLE_COLOUR('',#548);
#548=COLOUR_RGB('',0.615686274509804,0.811764705882353,0.929411764705882);
#549=MANIFOLD_SOLID_BREP('Part 1',#540);
#550=SHAPE_DEFINITION_REPRESENTATION(#906,#551);
#551=SHAPE_REPRESENTATION('Part 1',(#552),#901);
#552=AXIS2_PLACEMENT_3D('',#751,#601,#602);
#553=AXIS2_PLACEMENT_3D('',#752,#603,#604);
#554=AXIS2_PLACEMENT_3D('',#769,#613,#614);
#555=AXIS2_PLACEMENT_3D('',#778,#619,#620);
#556=AXIS2_PLACEMENT_3D('',#787,#625,#626);
#557=AXIS2_PLACEMENT_3D('',#788,#627,#628);
#558=AXIS2_PLACEMENT_3D('',#790,#629,#630);
#559=AXIS2_PLACEMENT_3D('',#791,#631,#632);
#560=AXIS2_PLACEMENT_3D('',#793,#633,#634);
#561=AXIS2_PLACEMENT_3D('',#794,#635,#636);
#562=AXIS2_PLACEMENT_3D('',#796,#637,#638);
#563=AXIS2_PLACEMENT_3D('',#798,#639,#640);
#564=AXIS2_PLACEMENT_3D('',#799,#641,#642);
#565=AXIS2_PLACEMENT_3D('',#801,#643,#644);
#566=AXIS2_PLACEMENT_3D('',#803,#645,#646);
#567=AXIS2_PLACEMENT_3D('',#804,#647,#648);
#568=AXIS2_PLACEMENT_3D('',#806,#649,#650);
#569=AXIS2_PLACEMENT_3D('',#807,#651,#652);
#570=AXIS2_PLACEMENT_3D('',#809,#653,#654);
#571=AXIS2_PLACEMENT_3D('',#818,#659,#660);
#572=AXIS2_PLACEMENT_3D('',#819,#661,#662);
#573=AXIS2_PLACEMENT_3D('',#821,#663,#664);
#574=AXIS2_PLACEMENT_3D('',#822,#665,#666);
#575=AXIS2_PLACEMENT_3D('',#824,#667,#668);
#576=AXIS2_PLACEMENT_3D('',#825,#669,#670);
#577=AXIS2_PLACEMENT_3D('',#830,#672,#673);
#578=AXIS2_PLACEMENT_3D('',#833,#675,#676);
#579=AXIS2_PLACEMENT_3D('',#839,#680,#681);
#580=AXIS2_PLACEMENT_3D('',#840,#682,#683);
#581=AXIS2_PLACEMENT_3D('',#844,#685,#686);
#582=AXIS2_PLACEMENT_3D('',#845,#687,#688);
#583=AXIS2_PLACEMENT_3D('',#846,#689,#690);
#584=AXIS2_PLACEMENT_3D('',#848,#691,#692);
#585=AXIS2_PLACEMENT_3D('',#849,#693,#694);
#586=AXIS2_PLACEMENT_3D('',#851,#695,#696);
#587=AXIS2_PLACEMENT_3D('',#856,#701,#702);
#588=AXIS2_PLACEMENT_3D('',#858,#704,#705);
#589=AXIS2_PLACEMENT_3D('',#860,#707,#708);
#590=AXIS2_PLACEMENT_3D('',#873,#717,#718);
#591=AXIS2_PLACEMENT_3D('',#875,#720,#721);
#592=AXIS2_PLACEMENT_3D('',#877,#723,#724);
#593=AXIS2_PLACEMENT_3D('',#878,#725,#726);
#594=AXIS2_PLACEMENT_3D('',#882,#729,#730);
#595=AXIS2_PLACEMENT_3D('',#886,#733,#734);
#596=AXIS2_PLACEMENT_3D('',#888,#736,#737);
#597=AXIS2_PLACEMENT_3D('',#889,#738,#739);
#598=AXIS2_PLACEMENT_3D('',#893,#742,#743);
#599=AXIS2_PLACEMENT_3D('',#897,#746,#747);
#600=AXIS2_PLACEMENT_3D('',#899,#749,#750);
#601=DIRECTION('',(0.,0.,1.));
#602=DIRECTION('',(1.,0.,0.));
#603=DIRECTION('',(1.,3.06717098105226E-16,0.));
#604=DIRECTION('',(-3.06717098105226E-16,1.,0.));
#605=DIRECTION('',(-3.06717098105226E-16,1.,0.));
#606=DIRECTION('',(0.,0.,1.));
#607=DIRECTION('',(-3.06717098105226E-16,1.,0.));
#608=DIRECTION('',(0.,0.,1.));
#609=DIRECTION('',(-3.06717098105226E-16,1.,0.));
#610=DIRECTION('',(0.,0.,1.));
#611=DIRECTION('',(-3.06717098105226E-16,1.,0.));
#612=DIRECTION('',(0.,0.,1.));
#613=DIRECTION('',(1.,3.06717098105226E-16,0.));
#614=DIRECTION('',(-3.06717098105226E-16,1.,0.));
#615=DIRECTION('',(-3.06717098105226E-16,1.,0.));
#616=DIRECTION('',(0.,0.,1.));
#617=DIRECTION('',(-3.06717098105226E-16,1.,0.));
#618=DIRECTION('',(0.,0.,1.));
#619=DIRECTION('',(1.,3.06717098105226E-16,0.));
#620=DIRECTION('',(-3.06717098105226E-16,1.,0.));
#621=DIRECTION('',(0.,0.,1.));
#622=DIRECTION('',(-3.06717098105226E-16,1.,0.));
#623=DIRECTION('',(0.,0.,1.));
#624=DIRECTION('',(-3.06717098105226E-16,1.,0.));
#625=DIRECTION('',(0.,0.,1.));
#626=DIRECTION('',(1.,0.,0.));
#627=DIRECTION('',(0.,0.,1.));
#628=DIRECTION('',(1.,0.,0.));
#629=DIRECTION('',(0.,0.,1.));
#630=DIRECTION('',(1.,0.,0.));
#631=DIRECTION('',(0.,0.,1.));
#632=DIRECTION('',(1.,0.,0.));
#633=DIRECTION('',(0.,0.,1.));
#634=DIRECTION('',(1.,0.,0.));
#635=DIRECTION('',(0.,0.,1.));
#636=DIRECTION('',(1.,0.,0.));
#637=DIRECTION('',(0.,0.,1.));
#638=DIRECTION('',(1.,0.,0.));
#639=DIRECTION('',(0.,0.,1.));
#640=DIRECTION('',(1.,0.,0.));
#641=DIRECTION('',(0.,0.,1.));
#642=DIRECTION('',(1.,0.,0.));
#643=DIRECTION('',(0.,0.,1.));
#644=DIRECTION('',(1.,0.,0.));
#645=DIRECTION('',(0.,0.,-1.));
#646=DIRECTION('',(-1.,0.,0.));
#647=DIRECTION('',(0.,0.,1.));
#648=DIRECTION('',(1.,0.,0.));
#649=DIRECTION('',(0.,0.,-1.));
#650=DIRECTION('',(-1.,0.,0.));
#651=DIRECTION('',(0.,0.,1.));
#652=DIRECTION('',(1.,0.,0.));
#653=DIRECTION('',(-1.,0.,0.));
#654=DIRECTION('',(0.,0.,1.));
#655=DIRECTION('',(0.,-1.,0.));
#656=DIRECTION('',(0.,0.,1.));
#657=DIRECTION('',(0.,-1.,0.));
#658=DIRECTION('',(0.,0.,1.));
#659=DIRECTION('',(0.,0.,-1.));
#660=DIRECTION('',(-1.,0.,0.));
#661=DIRECTION('',(0.,0.,1.));
#662=DIRECTION('',(1.,0.,0.));
#663=DIRECTION('',(0.,0.,-1.));
#664=DIRECTION('',(-1.,0.,0.));
#665=DIRECTION('',(0.,0.,1.));
#666=DIRECTION('',(1.,0.,0.));
#667=DIRECTION('',(0.,0.,-1.));
#668=DIRECTION('',(-1.,0.,0.));
#669=DIRECTION('',(0.,0.,1.));
#670=DIRECTION('',(1.,0.,0.));
#671=DIRECTION('',(0.,0.,1.));
#672=DIRECTION('',(0.,0.,1.));
#673=DIRECTION('',(1.,0.,0.));
#674=DIRECTION('',(0.,0.,1.));
#675=DIRECTION('',(-1.,0.,0.));
#676=DIRECTION('',(0.,0.,1.));
#677=DIRECTION('',(0.,-1.,0.));
#678=DIRECTION('',(0.,-1.,0.));
#679=DIRECTION('',(0.,0.,1.));
#680=DIRECTION('',(0.,0.,1.));
#681=DIRECTION('',(1.,0.,0.));
#682=DIRECTION('',(0.,0.,1.));
#683=DIRECTION('',(1.,0.,0.));
#684=DIRECTION('',(0.,0.,1.));
#685=DIRECTION('',(0.,0.,1.));
#686=DIRECTION('',(1.,0.,0.));
#687=DIRECTION('',(0.,0.,1.));
#688=DIRECTION('',(1.,0.,0.));
#689=DIRECTION('',(0.,0.,1.));
#690=DIRECTION('',(1.,0.,0.));
#691=DIRECTION('',(0.,0.,1.));
#692=DIRECTION('',(1.,0.,0.));
#693=DIRECTION('',(0.,0.,1.));
#694=DIRECTION('',(1.,0.,0.));
#695=DIRECTION('',(0.,0.,1.));
#696=DIRECTION('',(1.,0.,0.));
#697=DIRECTION('',(1.,0.,0.));
#698=DIRECTION('',(1.,0.,0.));
#699=DIRECTION('',(1.15648231731787E-15,1.,0.));
#700=DIRECTION('',(0.,-1.,0.));
#701=DIRECTION('',(0.,-1.,0.));
#702=DIRECTION('',(0.,0.,-1.));
#703=DIRECTION('',(1.,0.,0.));
#704=DIRECTION('',(0.,-1.,0.));
#705=DIRECTION('',(0.,0.,-1.));
#706=DIRECTION('',(1.,0.,0.));
#707=DIRECTION('',(0.,0.,1.));
#708=DIRECTION('',(1.,0.,0.));
#709=DIRECTION('',(-0.866025403784439,0.5,0.));
#710=DIRECTION('',(0.,-1.,0.));
#711=DIRECTION('',(0.866025403784438,0.5,0.));
#712=DIRECTION('',(1.,1.21415466385078E-16,0.));
#713=DIRECTION('',(1.,0.,0.));
#714=DIRECTION('',(-0.86602540378444,0.5,0.));
#715=DIRECTION('',(0.,-1.,0.));
#716=DIRECTION('',(0.866025403784438,0.5,0.));
#717=DIRECTION('',(1.21415466385078E-16,-1.,0.));
#718=DIRECTION('',(1.,1.21415466385078E-16,0.));
#719=DIRECTION('',(1.,1.21415466385078E-16,0.));
#720=DIRECTION('',(0.,0.,1.));
#721=DIRECTION('',(1.,0.,0.));
#722=DIRECTION('',(1.,0.,0.));
#723=DIRECTION('',(0.,-1.,0.));
#724=DIRECTION('',(0.,0.,-1.));
#725=DIRECTION('',(0.5,-0.866025403784438,0.));
#726=DIRECTION('',(0.866025403784438,0.5,0.));
#727=DIRECTION('',(0.,0.,1.));
#728=DIRECTION('',(0.866025403784438,0.5,0.));
#729=DIRECTION('',(0.5,0.866025403784439,0.));
#730=DIRECTION('',(-0.866025403784439,0.5,0.));
#731=DIRECTION('',(-0.866025403784439,0.5,0.));
#732=DIRECTION('',(0.,0.,1.));
#733=DIRECTION('',(-1.,0.,0.));
#734=DIRECTION('',(0.,0.,1.));
#735=DIRECTION('',(0.,-1.,0.));
#736=DIRECTION('',(0.,0.,1.));
#737=DIRECTION('',(1.,0.,0.));
#738=DIRECTION('',(0.5,-0.866025403784438,0.));
#739=DIRECTION('',(0.866025403784438,0.5,0.));
#740=DIRECTION('',(0.,0.,1.));
#741=DIRECTION('',(0.866025403784438,0.5,0.));
#742=DIRECTION('',(0.5,0.86602540378444,0.));
#743=DIRECTION('',(-0.86602540378444,0.5,0.));
#744=DIRECTION('',(-0.86602540378444,0.5,0.));
#745=DIRECTION('',(0.,0.,1.));
#746=DIRECTION('',(-1.,0.,0.));
#747=DIRECTION('',(0.,0.,1.));
#748=DIRECTION('',(0.,-1.,0.));
#749=DIRECTION('',(0.,0.,1.));
#750=DIRECTION('',(1.,0.,0.));
#751=CARTESIAN_POINT('',(0.,0.,0.));
#752=CARTESIAN_POINT('',(0.0143316378816962,0.00141066573233156,0.));
#753=CARTESIAN_POINT('',(0.0143316378816962,0.00141079073233157,-0.013073));
#754=CARTESIAN_POINT('',(0.0143316378816963,-0.0567985842676684,-0.01307275));
#755=CARTESIAN_POINT('',(0.0143316378816962,0.0596201657323315,-0.01307275));
#756=CARTESIAN_POINT('',(0.0143316378816962,0.0596201657323316,-0.013072));
#757=CARTESIAN_POINT('',(0.0143316378816962,0.0596201657323316,-0.000797));
#758=CARTESIAN_POINT('',(0.0143316378816962,0.00141079073233157,-0.000797));
#759=CARTESIAN_POINT('',(0.0143316378816962,0.0573701657323316,-0.000797));
#760=CARTESIAN_POINT('',(0.0143316378816962,0.0573701657323316,-0.011297));
#761=CARTESIAN_POINT('',(0.0143316378816962,0.0573701657323316,-0.010073));
#762=CARTESIAN_POINT('',(0.0143316378816962,0.00141079073233157,-0.010073));
#763=CARTESIAN_POINT('',(0.0143316378816962,-0.0545485842676684,-0.010073));
#764=CARTESIAN_POINT('',(0.0143316378816962,-0.0545485842676684,-0.011297));
#765=CARTESIAN_POINT('',(0.0143316378816962,-0.0545485842676684,-0.000797));
#766=CARTESIAN_POINT('',(0.0143316378816962,0.00141079073233157,-0.000797));
#767=CARTESIAN_POINT('',(0.0143316378816964,-0.0567985842676684,-0.000797));
#768=CARTESIAN_POINT('',(0.0143316378816964,-0.0567985842676684,-0.013072));
#769=CARTESIAN_POINT('',(0.0143316378816962,0.00141066573233156,0.));
#770=CARTESIAN_POINT('',(0.0143316378816962,0.00141079073233157,-0.013073));
#771=CARTESIAN_POINT('',(0.0143316378816962,-0.0605485842676684,-0.013073));
#772=CARTESIAN_POINT('',(0.0143316378816963,-0.0582985842676684,-0.01307275));
#773=CARTESIAN_POINT('',(0.0143316378816964,-0.0582985842676684,-0.013072));
#774=CARTESIAN_POINT('',(0.0143316378816962,-0.0582985842676684,-0.000797));
#775=CARTESIAN_POINT('',(0.0143316378816962,0.00141079073233157,-0.000797));
#776=CARTESIAN_POINT('',(0.0143316378816962,-0.0605485842676684,-0.000797));
#777=CARTESIAN_POINT('',(0.0143316378816962,-0.0605485842676684,-0.013073));
#778=CARTESIAN_POINT('',(0.0143316378816962,0.00141066573233156,0.));
#779=CARTESIAN_POINT('',(0.0143316378816962,0.0611201657323316,-0.013072));
#780=CARTESIAN_POINT('',(0.0143316378816962,0.0611201657323316,-0.01307275));
#781=CARTESIAN_POINT('',(0.0143316378816962,0.0611201657323316,-0.000797));
#782=CARTESIAN_POINT('',(0.0143316378816962,0.00141079073233157,-0.013073));
#783=CARTESIAN_POINT('',(0.0143316378816962,0.0633701657323316,-0.013073));
#784=CARTESIAN_POINT('',(0.0143316378816962,0.0633701657323316,-0.013073));
#785=CARTESIAN_POINT('',(0.0143316378816962,0.0633701657323316,-0.000797));
#786=CARTESIAN_POINT('',(0.0143316378816962,0.00141079073233157,-0.000797));
#787=CARTESIAN_POINT('',(0.0143316378816962,0.00141079073233157,-0.005323));
#788=CARTESIAN_POINT('',(-0.150618362118304,-0.0480485842676684,-0.005323));
#789=CARTESIAN_POINT('',(-0.148118362118304,-0.0480485842676684,-0.005323));
#790=CARTESIAN_POINT('',(0.0143316378816962,0.00141079073233157,-0.005323));
#791=CARTESIAN_POINT('',(-0.150618362118304,0.0508701657323316,-0.005323));
#792=CARTESIAN_POINT('',(-0.148118362118304,0.0508701657323316,-0.005323));
#793=CARTESIAN_POINT('',(0.0143316378816962,0.00141079073233157,-0.012));
#794=CARTESIAN_POINT('',(-0.159018362118304,-0.0564485842676685,-0.012));
#795=CARTESIAN_POINT('',(-0.157418362118304,-0.0564485842676685,-0.012));
#796=CARTESIAN_POINT('',(-0.159018362118304,-0.0564485842676685,-0.012));
#797=CARTESIAN_POINT('',(-0.156418362118304,-0.0564485842676685,-0.012));
#798=CARTESIAN_POINT('',(0.0143316378816962,0.00141079073233157,-0.012));
#799=CARTESIAN_POINT('',(-0.159018362118304,0.0592701657323315,-0.012));
#800=CARTESIAN_POINT('',(-0.157418362118304,0.0592701657323315,-0.012));
#801=CARTESIAN_POINT('',(-0.159018362118304,0.0592701657323315,-0.012));
#802=CARTESIAN_POINT('',(-0.156418362118304,0.0592701657323315,-0.012));
#803=CARTESIAN_POINT('',(-0.150618362118304,-0.0480485842676684,-0.005323));
#804=CARTESIAN_POINT('',(-0.150618362118304,-0.0480485842676684,-0.010073));
#805=CARTESIAN_POINT('',(-0.148118362118304,-0.0480485842676684,-0.010073));
#806=CARTESIAN_POINT('',(-0.150618362118304,0.0508701657323316,-0.005323));
#807=CARTESIAN_POINT('',(-0.150618362118304,0.0508701657323316,-0.010073));
#808=CARTESIAN_POINT('',(-0.148118362118304,0.0508701657323316,-0.010073));
#809=CARTESIAN_POINT('',(-0.157118362118304,0.00141079073233155,-0.011297));
#810=CARTESIAN_POINT('',(-0.157118362118304,0.00141079073233157,-0.010073));
#811=CARTESIAN_POINT('',(-0.157118362118304,0.0573701657323316,-0.010073));
#812=CARTESIAN_POINT('',(-0.157118362118304,-0.0545485842676685,-0.010073));
#813=CARTESIAN_POINT('',(-0.157118362118304,0.0573701657323316,-0.011297));
#814=CARTESIAN_POINT('',(-0.157118362118304,0.0573701657323316,-0.000797));
#815=CARTESIAN_POINT('',(-0.157118362118304,0.00141079073233155,-0.000797));
#816=CARTESIAN_POINT('',(-0.157118362118304,-0.0545485842676685,-0.000797));
#817=CARTESIAN_POINT('',(-0.157118362118304,-0.0545485842676685,-0.011297));
#818=CARTESIAN_POINT('',(-0.159018362118304,-0.0564485842676685,-0.005323));
#819=CARTESIAN_POINT('',(-0.159018362118304,-0.0564485842676685,-0.000797));
#820=CARTESIAN_POINT('',(-0.157418362118304,-0.0564485842676685,-0.000797));
#821=CARTESIAN_POINT('',(-0.159018362118304,0.0592701657323315,-0.005323));
#822=CARTESIAN_POINT('',(-0.159018362118304,0.0592701657323315,-0.000797));
#823=CARTESIAN_POINT('',(-0.157418362118304,0.0592701657323315,-0.000797));
#824=CARTESIAN_POINT('',(-0.158118362118304,0.0583701657323316,-0.013073));
#825=CARTESIAN_POINT('',(-0.158118362118304,0.0583701657323316,-0.013073));
#826=CARTESIAN_POINT('',(-0.163118362118304,0.0583701657323316,-0.013073));
#827=CARTESIAN_POINT('',(-0.158118362118304,0.0633701657323316,-0.013073));
#828=CARTESIAN_POINT('',(-0.163118362118304,0.0583701657323316,-0.013073));
#829=CARTESIAN_POINT('',(-0.163118362118304,0.0583701657323316,-0.000797));
#830=CARTESIAN_POINT('',(-0.158118362118304,0.0583701657323316,-0.000797));
#831=CARTESIAN_POINT('',(-0.158118362118304,0.0633701657323316,-0.000797));
#832=CARTESIAN_POINT('',(-0.158118362118304,0.0633701657323316,-0.000797));
#833=CARTESIAN_POINT('',(-0.163118362118304,0.00141079073233157,-0.013073));
#834=CARTESIAN_POINT('',(-0.163118362118304,0.00141079073233157,-0.000797));
#835=CARTESIAN_POINT('',(-0.163118362118304,-0.0555485842676684,-0.000797));
#836=CARTESIAN_POINT('',(-0.163118362118304,0.00141079073233157,-0.013073));
#837=CARTESIAN_POINT('',(-0.163118362118304,-0.0555485842676684,-0.013073));
#838=CARTESIAN_POINT('',(-0.163118362118304,-0.0555485842676684,-0.013073));
#839=CARTESIAN_POINT('',(-0.158118362118304,-0.0555485842676684,-0.013073));
#840=CARTESIAN_POINT('',(-0.158118362118304,-0.0555485842676684,-0.013073));
#841=CARTESIAN_POINT('',(-0.158118362118304,-0.0605485842676684,-0.013073));
#842=CARTESIAN_POINT('',(-0.158118362118304,-0.0605485842676684,-0.013073));
#843=CARTESIAN_POINT('',(-0.158118362118304,-0.0605485842676684,-0.000797));
#844=CARTESIAN_POINT('',(-0.158118362118304,-0.0555485842676684,-0.000797));
#845=CARTESIAN_POINT('',(-0.159018362118304,-0.0564485842676685,-0.037));
#846=CARTESIAN_POINT('',(-0.159018362118304,-0.0564485842676685,-0.013073));
#847=CARTESIAN_POINT('',(-0.156418362118304,-0.0564485842676685,-0.013073));
#848=CARTESIAN_POINT('',(-0.159018362118304,0.0592701657323315,-0.037));
#849=CARTESIAN_POINT('',(-0.159018362118304,0.0592701657323315,-0.013073));
#850=CARTESIAN_POINT('',(-0.156418362118304,0.0592701657323315,-0.013073));
#851=CARTESIAN_POINT('',(0.0143316378816962,0.00141079073233157,-0.013073));
#852=CARTESIAN_POINT('',(0.0143316378816962,-0.0605485842676684,-0.013073));
#853=CARTESIAN_POINT('',(0.0143316378816962,0.0633701657323316,-0.013073));
#854=CARTESIAN_POINT('',(0.0143316378816962,0.0603701657323316,-0.013072));
#855=CARTESIAN_POINT('',(0.0143316378816964,-0.0575485842676684,-0.013072));
#856=CARTESIAN_POINT('',(0.0143316378816962,-0.0605485842676684,-0.013073));
#857=CARTESIAN_POINT('',(0.0143316378816962,-0.0605485842676684,-0.000797));
#858=CARTESIAN_POINT('',(0.0143316378816962,0.0633701657323316,-0.013073));
#859=CARTESIAN_POINT('',(0.0143316378816962,0.0633701657323316,-0.000797));
#860=CARTESIAN_POINT('',(0.0143316378816962,0.00141079073233157,-0.000797));
#861=CARTESIAN_POINT('',(0.0151976632854807,-0.0587985842676684,-0.000797));
#862=CARTESIAN_POINT('',(0.0160636886892651,-0.0592985842676684,-0.000797));
#863=CARTESIAN_POINT('',(0.0160636886892651,-0.0575485842676684,-0.000797));
#864=CARTESIAN_POINT('',(0.0160636886892651,-0.0557985842676684,-0.000797));
#865=CARTESIAN_POINT('',(0.0151976632854807,-0.0562985842676684,-0.000797));
#866=CARTESIAN_POINT('',(0.0143316378816962,-0.0545485842676684,-0.000797));
#867=CARTESIAN_POINT('',(0.0143316378816962,0.0573701657323316,-0.000797));
#868=CARTESIAN_POINT('',(0.0151976632854807,0.0591201657323316,-0.000797));
#869=CARTESIAN_POINT('',(0.0160636886892651,0.0586201657323316,-0.000797));
#870=CARTESIAN_POINT('',(0.0160636886892651,0.0603701657323316,-0.000797));
#871=CARTESIAN_POINT('',(0.0160636886892651,0.0621201657323316,-0.000797));
#872=CARTESIAN_POINT('',(0.0151976632854807,0.0616201657323316,-0.000797));
#873=CARTESIAN_POINT('',(0.0143316378816962,-0.0545485842676684,-0.011297));
#874=CARTESIAN_POINT('',(0.0143316378816962,-0.0545485842676684,-0.010073));
#875=CARTESIAN_POINT('',(0.0143316378816962,0.00141079073233157,-0.010073));
#876=CARTESIAN_POINT('',(0.0143316378816962,0.0573701657323316,-0.010073));
#877=CARTESIAN_POINT('',(0.0143316378816962,0.0573701657323316,-0.011297));
#878=CARTESIAN_POINT('',(0.0151976632854807,-0.0562985842676684,-0.013072));
#879=CARTESIAN_POINT('',(0.0160636886892651,-0.0557985842676684,-0.013072));
#880=CARTESIAN_POINT('',(0.0160636886892651,-0.0557985842676684,-0.013072));
#881=CARTESIAN_POINT('',(0.0151976632854807,-0.0562985842676684,-0.013072));
#882=CARTESIAN_POINT('',(0.0151976632854807,-0.0587985842676684,-0.013072));
#883=CARTESIAN_POINT('',(0.0151976632854807,-0.0587985842676684,-0.013072));
#884=CARTESIAN_POINT('',(0.0160636886892651,-0.0592985842676684,-0.013072));
#885=CARTESIAN_POINT('',(0.0160636886892651,-0.0592985842676684,-0.013072));
#886=CARTESIAN_POINT('',(0.0160636886892651,-0.0575485842676684,-0.013072));
#887=CARTESIAN_POINT('',(0.0160636886892651,-0.0575485842676684,-0.013072));
#888=CARTESIAN_POINT('',(0.0143316378816962,0.00141079073233157,-0.013072));
#889=CARTESIAN_POINT('',(0.0151976632854807,0.0616201657323316,-0.013072));
#890=CARTESIAN_POINT('',(0.0160636886892651,0.0621201657323316,-0.013072));
#891=CARTESIAN_POINT('',(0.0160636886892651,0.0621201657323316,-0.013072));
#892=CARTESIAN_POINT('',(0.0151976632854807,0.0616201657323316,-0.013072));
#893=CARTESIAN_POINT('',(0.0151976632854807,0.0591201657323316,-0.013072));
#894=CARTESIAN_POINT('',(0.0151976632854807,0.0591201657323316,-0.013072));
#895=CARTESIAN_POINT('',(0.0160636886892651,0.0586201657323316,-0.013072));
#896=CARTESIAN_POINT('',(0.0160636886892651,0.0586201657323316,-0.013072));
#897=CARTESIAN_POINT('',(0.0160636886892651,0.0603701657323316,-0.013072));
#898=CARTESIAN_POINT('',(0.0160636886892651,0.0603701657323316,-0.013072));
#899=CARTESIAN_POINT('',(0.0143316378816962,0.00141079073233157,-0.013072));
#900=MECHANICAL_DESIGN_GEOMETRIC_PRESENTATION_REPRESENTATION('',(#541),
#901);
#901=(
GEOMETRIC_REPRESENTATION_CONTEXT(3)
GLOBAL_UNCERTAINTY_ASSIGNED_CONTEXT((#902))
GLOBAL_UNIT_ASSIGNED_CONTEXT((#905,#904,#903))
REPRESENTATION_CONTEXT('Part 1','TOP_LEVEL_ASSEMBLY_PART')
);
#902=UNCERTAINTY_MEASURE_WITH_UNIT(LENGTH_MEASURE(2.15000000000111E-5),
#905,'DISTANCE_ACCURACY_VALUE','Maximum Tolerance applied to model');
#903=(
NAMED_UNIT(*)
SI_UNIT($,.STERADIAN.)
SOLID_ANGLE_UNIT()
);
#904=(
NAMED_UNIT(*)
PLANE_ANGLE_UNIT()
SI_UNIT($,.RADIAN.)
);
#905=(
LENGTH_UNIT()
NAMED_UNIT(*)
SI_UNIT($,.METRE.)
);
#906=PRODUCT_DEFINITION_SHAPE('','',#907);
#907=PRODUCT_DEFINITION('','',#909,#908);
#908=PRODUCT_DEFINITION_CONTEXT('',#915,'design');
#909=PRODUCT_DEFINITION_FORMATION_WITH_SPECIFIED_SOURCE('','',#911,
 .NOT_KNOWN.);
#910=PRODUCT_RELATED_PRODUCT_CATEGORY('','',(#911));
#911=PRODUCT('Part 1','Part 1','Part 1',(#913));
#912=PRODUCT_CATEGORY('','');
#913=PRODUCT_CONTEXT('',#915,'mechanical');
#914=APPLICATION_PROTOCOL_DEFINITION('international standard',
'ap242_managed_model_based_3d_engineering',2020,#915);
#915=APPLICATION_CONTEXT('managed model based 3d engineering');
ENDSEC;
END-ISO-10303-21;
