ISO-10303-21;
HEADER;
/* Generated by software containing ST-Developer
 * from STEP Tools, Inc. (www.steptools.com) 
 */
/* OPTION: using custom renumber hook */

FILE_DESCRIPTION(
/* description */ ('STEP AP242 Edition 2',
'CAx-IF Rec.Pracs.---Representation and Presentation of Product Manufa
cturing Information (PMI)---4.0---2014-10-13',
'CAx-IF Rec.Pracs.---3D Tessellated Geometry---0.4---2014-09-14','2;1',
'CAx-IF Rec.Pracs.---User Defined Attributes---1.5---2016-08-15'),
/* implementation_level */ '2;1');

FILE_NAME(
/* name */ 'Part Studio 4 - Part 2',
/* time_stamp */ '2026-08-24T15:48:38Z',
/* author */ (''),
/* organization */ (''),
/* preprocessor_version */ 'ST-DEVELOPER v20',
/* originating_system */ 'ONSHAPE BY PTC INC, 1.219',
/* authorisation */ '  ');

FILE_SCHEMA (('AP242_MANAGED_MODEL_BASED_3D_ENGINEERING_MIM_LF { 1 0 10303 442 3 1 4 }'));
ENDSEC;

DATA;
#10=SHAPE_REPRESENTATION_RELATIONSHIP('','',#1093,#11);
#11=ADVANCED_BREP_SHAPE_REPRESENTATION('',(#1091),#1799);
#12=B_SPLINE_SURFACE_WITH_KNOTS('',1,1,((#1706,#1707),(#1708,#1709)),
 .RULED_SURF.,.F.,.F.,.F.,(2,2),(2,2),(0.,1.),(0.,1.),
 .PIECEWISE_BEZIER_KNOTS.);
#13=B_SPLINE_SURFACE_WITH_KNOTS('',1,1,((#1711,#1712),(#1713,#1714)),
 .RULED_SURF.,.F.,.F.,.F.,(2,2),(2,2),(0.,1.),(0.,1.),
 .PIECEWISE_BEZIER_KNOTS.);
#14=B_SPLINE_SURFACE_WITH_KNOTS('',1,1,((#1727,#1728),(#1729,#1730)),
 .RULED_SURF.,.F.,.F.,.F.,(2,2),(2,2),(0.,1.),(0.,1.),
 .PIECEWISE_BEZIER_KNOTS.);
#15=B_SPLINE_SURFACE_WITH_KNOTS('',1,1,((#1735,#1736),(#1737,#1738)),
 .RULED_SURF.,.F.,.F.,.F.,(2,2),(2,2),(0.,1.),(0.,1.),
 .PIECEWISE_BEZIER_KNOTS.);
#16=B_SPLINE_SURFACE_WITH_KNOTS('',1,1,((#1760,#1761),(#1762,#1763)),
 .RULED_SURF.,.F.,.F.,.F.,(2,2),(2,2),(0.,1.),(0.,1.),
 .PIECEWISE_BEZIER_KNOTS.);
#17=B_SPLINE_SURFACE_WITH_KNOTS('',1,1,((#1765,#1766),(#1767,#1768)),
 .RULED_SURF.,.F.,.F.,.F.,(2,2),(2,2),(0.,1.),(0.,1.),
 .PIECEWISE_BEZIER_KNOTS.);
#18=B_SPLINE_SURFACE_WITH_KNOTS('',1,1,((#1781,#1782),(#1783,#1784)),
 .RULED_SURF.,.F.,.F.,.F.,(2,2),(2,2),(0.,1.),(0.,1.),
 .PIECEWISE_BEZIER_KNOTS.);
#19=B_SPLINE_SURFACE_WITH_KNOTS('',1,1,((#1789,#1790),(#1791,#1792)),
 .RULED_SURF.,.F.,.F.,.F.,(2,2),(2,2),(0.,1.),(0.,1.),
 .PIECEWISE_BEZIER_KNOTS.);
#20=CYLINDRICAL_SURFACE('',#1114,0.0025);
#21=CYLINDRICAL_SURFACE('',#1117,0.0025);
#22=CYLINDRICAL_SURFACE('',#1120,0.0016);
#23=CYLINDRICAL_SURFACE('',#1125,0.0016);
#24=CYLINDRICAL_SURFACE('',#1127,0.005);
#25=CYLINDRICAL_SURFACE('',#1128,0.005);
#26=CYLINDRICAL_SURFACE('',#1132,0.0026);
#27=CYLINDRICAL_SURFACE('',#1135,0.0026);
#28=CIRCLE('',#1098,0.005);
#29=CIRCLE('',#1099,0.005);
#30=CIRCLE('',#1100,0.0016);
#31=CIRCLE('',#1101,0.0016);
#32=CIRCLE('',#1104,0.005);
#33=CIRCLE('',#1105,0.005);
#34=CIRCLE('',#1106,0.0026);
#35=CIRCLE('',#1107,0.0026);
#36=CIRCLE('',#1110,0.0025);
#37=CIRCLE('',#1111,0.0025);
#38=CIRCLE('',#1113,0.0025);
#39=CIRCLE('',#1116,0.0025);
#40=CIRCLE('',#1121,0.0016);
#41=CIRCLE('',#1126,0.0016);
#42=CIRCLE('',#1133,0.0026);
#43=CIRCLE('',#1136,0.0026);
#44=B_SPLINE_CURVE_WITH_KNOTS('',3,(#1452,#1453,#1454,#1455),
 .UNSPECIFIED.,.F.,.F.,(4,4),(0.,0.00047508880896484),.UNSPECIFIED.);
#45=B_SPLINE_CURVE_WITH_KNOTS('',3,(#1459,#1460,#1461,#1462),
 .UNSPECIFIED.,.F.,.F.,(4,4),(0.,0.000475088808964883),.UNSPECIFIED.);
#46=B_SPLINE_CURVE_WITH_KNOTS('',3,(#1493,#1494,#1495,#1496),
 .UNSPECIFIED.,.F.,.F.,(4,4),(0.,0.000475088808964883),.UNSPECIFIED.);
#47=B_SPLINE_CURVE_WITH_KNOTS('',3,(#1500,#1501,#1502,#1503),
 .UNSPECIFIED.,.F.,.F.,(4,4),(0.,0.000475088808964886),.UNSPECIFIED.);
#48=B_SPLINE_CURVE_WITH_KNOTS('',3,(#1521,#1522,#1523,#1524),
 .UNSPECIFIED.,.F.,.F.,(4,4),(0.,0.000475088808964883),.UNSPECIFIED.);
#49=B_SPLINE_CURVE_WITH_KNOTS('',3,(#1528,#1529,#1530,#1531),
 .UNSPECIFIED.,.F.,.F.,(4,4),(0.,0.00047508880896484),.UNSPECIFIED.);
#50=B_SPLINE_CURVE_WITH_KNOTS('',3,(#1540,#1541,#1542,#1543),
 .UNSPECIFIED.,.F.,.F.,(4,4),(0.,0.000475088808964886),.UNSPECIFIED.);
#51=B_SPLINE_CURVE_WITH_KNOTS('',3,(#1547,#1548,#1549,#1550),
 .UNSPECIFIED.,.F.,.F.,(4,4),(0.,0.000475088808964883),.UNSPECIFIED.);
#52=B_SPLINE_CURVE_WITH_KNOTS('',3,(#1696,#1697,#1698,#1699),
 .UNSPECIFIED.,.F.,.F.,(4,4),(0.,0.000217129711919315),.UNSPECIFIED.);
#53=B_SPLINE_CURVE_WITH_KNOTS('',3,(#1700,#1701,#1702,#1703),
 .UNSPECIFIED.,.F.,.F.,(4,4),(0.,0.000217129711919311),.UNSPECIFIED.);
#54=B_SPLINE_CURVE_WITH_KNOTS('',3,(#1731,#1732,#1733,#1734),
 .UNSPECIFIED.,.F.,.F.,(4,4),(0.,0.000217129711919322),.UNSPECIFIED.);
#55=B_SPLINE_CURVE_WITH_KNOTS('',3,(#1739,#1740,#1741,#1742),
 .UNSPECIFIED.,.F.,.F.,(4,4),(0.,0.00021712971191932),.UNSPECIFIED.);
#56=B_SPLINE_CURVE_WITH_KNOTS('',3,(#1750,#1751,#1752,#1753),
 .UNSPECIFIED.,.F.,.F.,(4,4),(0.,0.000217129711919271),.UNSPECIFIED.);
#57=B_SPLINE_CURVE_WITH_KNOTS('',3,(#1754,#1755,#1756,#1757),
 .UNSPECIFIED.,.F.,.F.,(4,4),(0.,0.000217129711919268),.UNSPECIFIED.);
#58=B_SPLINE_CURVE_WITH_KNOTS('',3,(#1785,#1786,#1787,#1788),
 .UNSPECIFIED.,.F.,.F.,(4,4),(0.,0.000217129711919268),.UNSPECIFIED.);
#59=B_SPLINE_CURVE_WITH_KNOTS('',3,(#1793,#1794,#1795,#1796),
 .UNSPECIFIED.,.F.,.F.,(4,4),(0.,0.000217129711919271),.UNSPECIFIED.);
#60=ORIENTED_EDGE('',*,*,#352,.T.);
#61=ORIENTED_EDGE('',*,*,#353,.T.);
#62=ORIENTED_EDGE('',*,*,#354,.F.);
#63=ORIENTED_EDGE('',*,*,#355,.T.);
#64=ORIENTED_EDGE('',*,*,#356,.F.);
#65=ORIENTED_EDGE('',*,*,#357,.T.);
#66=ORIENTED_EDGE('',*,*,#358,.T.);
#67=ORIENTED_EDGE('',*,*,#359,.F.);
#68=ORIENTED_EDGE('',*,*,#360,.T.);
#69=ORIENTED_EDGE('',*,*,#361,.T.);
#70=ORIENTED_EDGE('',*,*,#362,.T.);
#71=ORIENTED_EDGE('',*,*,#363,.T.);
#72=ORIENTED_EDGE('',*,*,#364,.T.);
#73=ORIENTED_EDGE('',*,*,#365,.T.);
#74=ORIENTED_EDGE('',*,*,#366,.T.);
#75=ORIENTED_EDGE('',*,*,#367,.T.);
#76=ORIENTED_EDGE('',*,*,#368,.T.);
#77=ORIENTED_EDGE('',*,*,#369,.T.);
#78=ORIENTED_EDGE('',*,*,#352,.F.);
#79=ORIENTED_EDGE('',*,*,#370,.T.);
#80=ORIENTED_EDGE('',*,*,#371,.T.);
#81=ORIENTED_EDGE('',*,*,#372,.F.);
#82=ORIENTED_EDGE('',*,*,#373,.T.);
#83=ORIENTED_EDGE('',*,*,#374,.F.);
#84=ORIENTED_EDGE('',*,*,#375,.T.);
#85=ORIENTED_EDGE('',*,*,#376,.T.);
#86=ORIENTED_EDGE('',*,*,#377,.T.);
#87=ORIENTED_EDGE('',*,*,#378,.F.);
#88=ORIENTED_EDGE('',*,*,#358,.F.);
#89=ORIENTED_EDGE('',*,*,#379,.T.);
#90=ORIENTED_EDGE('',*,*,#380,.F.);
#91=ORIENTED_EDGE('',*,*,#381,.F.);
#92=ORIENTED_EDGE('',*,*,#382,.T.);
#93=ORIENTED_EDGE('',*,*,#383,.T.);
#94=ORIENTED_EDGE('',*,*,#384,.T.);
#95=ORIENTED_EDGE('',*,*,#385,.T.);
#96=ORIENTED_EDGE('',*,*,#386,.T.);
#97=ORIENTED_EDGE('',*,*,#387,.T.);
#98=ORIENTED_EDGE('',*,*,#362,.F.);
#99=ORIENTED_EDGE('',*,*,#388,.T.);
#100=ORIENTED_EDGE('',*,*,#389,.F.);
#101=ORIENTED_EDGE('',*,*,#390,.F.);
#102=ORIENTED_EDGE('',*,*,#391,.F.);
#103=ORIENTED_EDGE('',*,*,#392,.T.);
#104=ORIENTED_EDGE('',*,*,#393,.T.);
#105=ORIENTED_EDGE('',*,*,#394,.T.);
#106=ORIENTED_EDGE('',*,*,#395,.T.);
#107=ORIENTED_EDGE('',*,*,#396,.T.);
#108=ORIENTED_EDGE('',*,*,#397,.T.);
#109=ORIENTED_EDGE('',*,*,#398,.T.);
#110=ORIENTED_EDGE('',*,*,#356,.T.);
#111=ORIENTED_EDGE('',*,*,#399,.T.);
#112=ORIENTED_EDGE('',*,*,#400,.T.);
#113=ORIENTED_EDGE('',*,*,#401,.T.);
#114=ORIENTED_EDGE('',*,*,#402,.T.);
#115=ORIENTED_EDGE('',*,*,#403,.T.);
#116=ORIENTED_EDGE('',*,*,#404,.T.);
#117=ORIENTED_EDGE('',*,*,#405,.T.);
#118=ORIENTED_EDGE('',*,*,#406,.T.);
#119=ORIENTED_EDGE('',*,*,#407,.T.);
#120=ORIENTED_EDGE('',*,*,#408,.T.);
#121=ORIENTED_EDGE('',*,*,#409,.T.);
#122=ORIENTED_EDGE('',*,*,#410,.T.);
#123=ORIENTED_EDGE('',*,*,#411,.F.);
#124=ORIENTED_EDGE('',*,*,#354,.T.);
#125=ORIENTED_EDGE('',*,*,#412,.T.);
#126=ORIENTED_EDGE('',*,*,#413,.T.);
#127=ORIENTED_EDGE('',*,*,#414,.T.);
#128=ORIENTED_EDGE('',*,*,#361,.F.);
#129=ORIENTED_EDGE('',*,*,#415,.T.);
#130=ORIENTED_EDGE('',*,*,#416,.T.);
#131=ORIENTED_EDGE('',*,*,#376,.F.);
#132=ORIENTED_EDGE('',*,*,#417,.F.);
#133=ORIENTED_EDGE('',*,*,#418,.F.);
#134=ORIENTED_EDGE('',*,*,#419,.T.);
#135=ORIENTED_EDGE('',*,*,#388,.F.);
#136=ORIENTED_EDGE('',*,*,#360,.F.);
#137=ORIENTED_EDGE('',*,*,#420,.T.);
#138=ORIENTED_EDGE('',*,*,#421,.F.);
#139=ORIENTED_EDGE('',*,*,#415,.F.);
#140=ORIENTED_EDGE('',*,*,#422,.F.);
#141=ORIENTED_EDGE('',*,*,#423,.F.);
#142=ORIENTED_EDGE('',*,*,#424,.T.);
#143=ORIENTED_EDGE('',*,*,#422,.T.);
#144=ORIENTED_EDGE('',*,*,#424,.F.);
#145=ORIENTED_EDGE('',*,*,#425,.T.);
#146=ORIENTED_EDGE('',*,*,#423,.T.);
#147=ORIENTED_EDGE('',*,*,#425,.F.);
#148=ORIENTED_EDGE('',*,*,#416,.F.);
#149=ORIENTED_EDGE('',*,*,#421,.T.);
#150=ORIENTED_EDGE('',*,*,#426,.T.);
#151=ORIENTED_EDGE('',*,*,#377,.F.);
#152=ORIENTED_EDGE('',*,*,#420,.F.);
#153=ORIENTED_EDGE('',*,*,#359,.T.);
#154=ORIENTED_EDGE('',*,*,#378,.T.);
#155=ORIENTED_EDGE('',*,*,#426,.F.);
#156=ORIENTED_EDGE('',*,*,#427,.F.);
#157=ORIENTED_EDGE('',*,*,#380,.T.);
#158=ORIENTED_EDGE('',*,*,#407,.F.);
#159=ORIENTED_EDGE('',*,*,#428,.T.);
#160=ORIENTED_EDGE('',*,*,#390,.T.);
#161=ORIENTED_EDGE('',*,*,#429,.F.);
#162=ORIENTED_EDGE('',*,*,#430,.T.);
#163=ORIENTED_EDGE('',*,*,#431,.T.);
#164=ORIENTED_EDGE('',*,*,#374,.T.);
#165=ORIENTED_EDGE('',*,*,#432,.T.);
#166=ORIENTED_EDGE('',*,*,#355,.F.);
#167=ORIENTED_EDGE('',*,*,#411,.T.);
#168=ORIENTED_EDGE('',*,*,#433,.T.);
#169=ORIENTED_EDGE('',*,*,#370,.F.);
#170=ORIENTED_EDGE('',*,*,#372,.T.);
#171=ORIENTED_EDGE('',*,*,#434,.T.);
#172=ORIENTED_EDGE('',*,*,#409,.F.);
#173=ORIENTED_EDGE('',*,*,#435,.T.);
#174=ORIENTED_EDGE('',*,*,#436,.F.);
#175=ORIENTED_EDGE('',*,*,#381,.T.);
#176=ORIENTED_EDGE('',*,*,#410,.F.);
#177=ORIENTED_EDGE('',*,*,#434,.F.);
#178=ORIENTED_EDGE('',*,*,#371,.F.);
#179=ORIENTED_EDGE('',*,*,#433,.F.);
#180=ORIENTED_EDGE('',*,*,#408,.F.);
#181=ORIENTED_EDGE('',*,*,#432,.F.);
#182=ORIENTED_EDGE('',*,*,#373,.F.);
#183=ORIENTED_EDGE('',*,*,#435,.F.);
#184=ORIENTED_EDGE('',*,*,#389,.T.);
#185=ORIENTED_EDGE('',*,*,#419,.F.);
#186=ORIENTED_EDGE('',*,*,#437,.F.);
#187=ORIENTED_EDGE('',*,*,#429,.T.);
#188=ORIENTED_EDGE('',*,*,#375,.F.);
#189=ORIENTED_EDGE('',*,*,#431,.F.);
#190=ORIENTED_EDGE('',*,*,#438,.T.);
#191=ORIENTED_EDGE('',*,*,#417,.T.);
#192=ORIENTED_EDGE('',*,*,#430,.F.);
#193=ORIENTED_EDGE('',*,*,#437,.T.);
#194=ORIENTED_EDGE('',*,*,#418,.T.);
#195=ORIENTED_EDGE('',*,*,#438,.F.);
#196=ORIENTED_EDGE('',*,*,#439,.T.);
#197=ORIENTED_EDGE('',*,*,#414,.F.);
#198=ORIENTED_EDGE('',*,*,#436,.T.);
#199=ORIENTED_EDGE('',*,*,#439,.F.);
#200=ORIENTED_EDGE('',*,*,#440,.T.);
#201=ORIENTED_EDGE('',*,*,#413,.F.);
#202=ORIENTED_EDGE('',*,*,#427,.T.);
#203=ORIENTED_EDGE('',*,*,#440,.F.);
#204=ORIENTED_EDGE('',*,*,#406,.F.);
#205=ORIENTED_EDGE('',*,*,#441,.T.);
#206=ORIENTED_EDGE('',*,*,#391,.T.);
#207=ORIENTED_EDGE('',*,*,#428,.F.);
#208=ORIENTED_EDGE('',*,*,#442,.T.);
#209=ORIENTED_EDGE('',*,*,#443,.T.);
#210=ORIENTED_EDGE('',*,*,#444,.T.);
#211=ORIENTED_EDGE('',*,*,#445,.T.);
#212=ORIENTED_EDGE('',*,*,#446,.T.);
#213=ORIENTED_EDGE('',*,*,#447,.T.);
#214=ORIENTED_EDGE('',*,*,#448,.T.);
#215=ORIENTED_EDGE('',*,*,#449,.T.);
#216=ORIENTED_EDGE('',*,*,#450,.T.);
#217=ORIENTED_EDGE('',*,*,#451,.T.);
#218=ORIENTED_EDGE('',*,*,#452,.T.);
#219=ORIENTED_EDGE('',*,*,#453,.T.);
#220=ORIENTED_EDGE('',*,*,#454,.T.);
#221=ORIENTED_EDGE('',*,*,#455,.T.);
#222=ORIENTED_EDGE('',*,*,#456,.T.);
#223=ORIENTED_EDGE('',*,*,#457,.T.);
#224=ORIENTED_EDGE('',*,*,#458,.T.);
#225=ORIENTED_EDGE('',*,*,#459,.T.);
#226=ORIENTED_EDGE('',*,*,#460,.T.);
#227=ORIENTED_EDGE('',*,*,#461,.T.);
#228=ORIENTED_EDGE('',*,*,#462,.T.);
#229=ORIENTED_EDGE('',*,*,#463,.T.);
#230=ORIENTED_EDGE('',*,*,#464,.T.);
#231=ORIENTED_EDGE('',*,*,#465,.T.);
#232=ORIENTED_EDGE('',*,*,#441,.F.);
#233=ORIENTED_EDGE('',*,*,#405,.F.);
#234=ORIENTED_EDGE('',*,*,#466,.F.);
#235=ORIENTED_EDGE('',*,*,#445,.F.);
#236=ORIENTED_EDGE('',*,*,#467,.F.);
#237=ORIENTED_EDGE('',*,*,#392,.F.);
#238=ORIENTED_EDGE('',*,*,#466,.T.);
#239=ORIENTED_EDGE('',*,*,#404,.F.);
#240=ORIENTED_EDGE('',*,*,#468,.F.);
#241=ORIENTED_EDGE('',*,*,#442,.F.);
#242=ORIENTED_EDGE('',*,*,#469,.F.);
#243=ORIENTED_EDGE('',*,*,#443,.F.);
#244=ORIENTED_EDGE('',*,*,#470,.F.);
#245=ORIENTED_EDGE('',*,*,#450,.F.);
#246=ORIENTED_EDGE('',*,*,#467,.T.);
#247=ORIENTED_EDGE('',*,*,#444,.F.);
#248=ORIENTED_EDGE('',*,*,#471,.F.);
#249=ORIENTED_EDGE('',*,*,#382,.F.);
#250=ORIENTED_EDGE('',*,*,#468,.T.);
#251=ORIENTED_EDGE('',*,*,#403,.F.);
#252=ORIENTED_EDGE('',*,*,#472,.F.);
#253=ORIENTED_EDGE('',*,*,#470,.T.);
#254=ORIENTED_EDGE('',*,*,#471,.T.);
#255=ORIENTED_EDGE('',*,*,#469,.T.);
#256=ORIENTED_EDGE('',*,*,#473,.F.);
#257=ORIENTED_EDGE('',*,*,#383,.F.);
#258=ORIENTED_EDGE('',*,*,#474,.F.);
#259=ORIENTED_EDGE('',*,*,#449,.F.);
#260=ORIENTED_EDGE('',*,*,#475,.F.);
#261=ORIENTED_EDGE('',*,*,#399,.F.);
#262=ORIENTED_EDGE('',*,*,#363,.F.);
#263=ORIENTED_EDGE('',*,*,#387,.F.);
#264=ORIENTED_EDGE('',*,*,#475,.T.);
#265=ORIENTED_EDGE('',*,*,#448,.F.);
#266=ORIENTED_EDGE('',*,*,#476,.F.);
#267=ORIENTED_EDGE('',*,*,#400,.F.);
#268=ORIENTED_EDGE('',*,*,#472,.T.);
#269=ORIENTED_EDGE('',*,*,#402,.F.);
#270=ORIENTED_EDGE('',*,*,#477,.F.);
#271=ORIENTED_EDGE('',*,*,#451,.F.);
#272=ORIENTED_EDGE('',*,*,#473,.T.);
#273=ORIENTED_EDGE('',*,*,#453,.F.);
#274=ORIENTED_EDGE('',*,*,#478,.F.);
#275=ORIENTED_EDGE('',*,*,#384,.F.);
#276=ORIENTED_EDGE('',*,*,#474,.T.);
#277=ORIENTED_EDGE('',*,*,#386,.F.);
#278=ORIENTED_EDGE('',*,*,#479,.F.);
#279=ORIENTED_EDGE('',*,*,#446,.F.);
#280=ORIENTED_EDGE('',*,*,#401,.F.);
#281=ORIENTED_EDGE('',*,*,#476,.T.);
#282=ORIENTED_EDGE('',*,*,#480,.F.);
#283=ORIENTED_EDGE('',*,*,#477,.T.);
#284=ORIENTED_EDGE('',*,*,#385,.F.);
#285=ORIENTED_EDGE('',*,*,#478,.T.);
#286=ORIENTED_EDGE('',*,*,#481,.F.);
#287=ORIENTED_EDGE('',*,*,#479,.T.);
#288=ORIENTED_EDGE('',*,*,#480,.T.);
#289=ORIENTED_EDGE('',*,*,#447,.F.);
#290=ORIENTED_EDGE('',*,*,#481,.T.);
#291=ORIENTED_EDGE('',*,*,#452,.F.);
#292=ORIENTED_EDGE('',*,*,#357,.F.);
#293=ORIENTED_EDGE('',*,*,#398,.F.);
#294=ORIENTED_EDGE('',*,*,#482,.F.);
#295=ORIENTED_EDGE('',*,*,#457,.F.);
#296=ORIENTED_EDGE('',*,*,#483,.F.);
#297=ORIENTED_EDGE('',*,*,#379,.F.);
#298=ORIENTED_EDGE('',*,*,#482,.T.);
#299=ORIENTED_EDGE('',*,*,#397,.F.);
#300=ORIENTED_EDGE('',*,*,#484,.F.);
#301=ORIENTED_EDGE('',*,*,#454,.F.);
#302=ORIENTED_EDGE('',*,*,#485,.F.);
#303=ORIENTED_EDGE('',*,*,#455,.F.);
#304=ORIENTED_EDGE('',*,*,#486,.F.);
#305=ORIENTED_EDGE('',*,*,#462,.F.);
#306=ORIENTED_EDGE('',*,*,#483,.T.);
#307=ORIENTED_EDGE('',*,*,#456,.F.);
#308=ORIENTED_EDGE('',*,*,#487,.F.);
#309=ORIENTED_EDGE('',*,*,#364,.F.);
#310=ORIENTED_EDGE('',*,*,#484,.T.);
#311=ORIENTED_EDGE('',*,*,#396,.F.);
#312=ORIENTED_EDGE('',*,*,#488,.F.);
#313=ORIENTED_EDGE('',*,*,#486,.T.);
#314=ORIENTED_EDGE('',*,*,#487,.T.);
#315=ORIENTED_EDGE('',*,*,#485,.T.);
#316=ORIENTED_EDGE('',*,*,#489,.F.);
#317=ORIENTED_EDGE('',*,*,#365,.F.);
#318=ORIENTED_EDGE('',*,*,#490,.F.);
#319=ORIENTED_EDGE('',*,*,#461,.F.);
#320=ORIENTED_EDGE('',*,*,#491,.F.);
#321=ORIENTED_EDGE('',*,*,#412,.F.);
#322=ORIENTED_EDGE('',*,*,#353,.F.);
#323=ORIENTED_EDGE('',*,*,#369,.F.);
#324=ORIENTED_EDGE('',*,*,#491,.T.);
#325=ORIENTED_EDGE('',*,*,#460,.F.);
#326=ORIENTED_EDGE('',*,*,#492,.F.);
#327=ORIENTED_EDGE('',*,*,#393,.F.);
#328=ORIENTED_EDGE('',*,*,#488,.T.);
#329=ORIENTED_EDGE('',*,*,#395,.F.);
#330=ORIENTED_EDGE('',*,*,#493,.F.);
#331=ORIENTED_EDGE('',*,*,#463,.F.);
#332=ORIENTED_EDGE('',*,*,#489,.T.);
#333=ORIENTED_EDGE('',*,*,#465,.F.);
#334=ORIENTED_EDGE('',*,*,#494,.F.);
#335=ORIENTED_EDGE('',*,*,#366,.F.);
#336=ORIENTED_EDGE('',*,*,#490,.T.);
#337=ORIENTED_EDGE('',*,*,#368,.F.);
#338=ORIENTED_EDGE('',*,*,#495,.F.);
#339=ORIENTED_EDGE('',*,*,#458,.F.);
#340=ORIENTED_EDGE('',*,*,#394,.F.);
#341=ORIENTED_EDGE('',*,*,#492,.T.);
#342=ORIENTED_EDGE('',*,*,#496,.F.);
#343=ORIENTED_EDGE('',*,*,#493,.T.);
#344=ORIENTED_EDGE('',*,*,#367,.F.);
#345=ORIENTED_EDGE('',*,*,#494,.T.);
#346=ORIENTED_EDGE('',*,*,#497,.F.);
#347=ORIENTED_EDGE('',*,*,#495,.T.);
#348=ORIENTED_EDGE('',*,*,#496,.T.);
#349=ORIENTED_EDGE('',*,*,#459,.F.);
#350=ORIENTED_EDGE('',*,*,#497,.T.);
#351=ORIENTED_EDGE('',*,*,#464,.F.);
#352=EDGE_CURVE('',#498,#499,#594,.T.);
#353=EDGE_CURVE('',#499,#500,#595,.T.);
#354=EDGE_CURVE('',#501,#500,#596,.T.);
#355=EDGE_CURVE('',#501,#498,#597,.T.);
#356=EDGE_CURVE('',#502,#503,#598,.T.);
#357=EDGE_CURVE('',#502,#504,#599,.T.);
#358=EDGE_CURVE('',#504,#505,#600,.T.);
#359=EDGE_CURVE('',#506,#505,#601,.T.);
#360=EDGE_CURVE('',#506,#507,#602,.T.);
#361=EDGE_CURVE('',#507,#508,#603,.T.);
#362=EDGE_CURVE('',#508,#509,#604,.T.);
#363=EDGE_CURVE('',#509,#503,#605,.T.);
#364=EDGE_CURVE('',#510,#511,#606,.T.);
#365=EDGE_CURVE('',#511,#512,#44,.F.);
#366=EDGE_CURVE('',#512,#513,#607,.T.);
#367=EDGE_CURVE('',#513,#514,#45,.F.);
#368=EDGE_CURVE('',#514,#515,#608,.T.);
#369=EDGE_CURVE('',#515,#499,#609,.T.);
#370=EDGE_CURVE('',#498,#516,#610,.T.);
#371=EDGE_CURVE('',#516,#517,#28,.T.);
#372=EDGE_CURVE('',#518,#517,#611,.T.);
#373=EDGE_CURVE('',#518,#519,#29,.T.);
#374=EDGE_CURVE('',#520,#519,#612,.T.);
#375=EDGE_CURVE('',#520,#521,#613,.T.);
#376=EDGE_CURVE('',#521,#522,#614,.T.);
#377=EDGE_CURVE('',#522,#523,#615,.T.);
#378=EDGE_CURVE('',#505,#523,#616,.T.);
#379=EDGE_CURVE('',#504,#510,#617,.T.);
#380=EDGE_CURVE('',#524,#524,#30,.T.);
#381=EDGE_CURVE('',#525,#525,#31,.T.);
#382=EDGE_CURVE('',#526,#527,#618,.T.);
#383=EDGE_CURVE('',#527,#528,#46,.F.);
#384=EDGE_CURVE('',#528,#529,#619,.T.);
#385=EDGE_CURVE('',#529,#530,#47,.F.);
#386=EDGE_CURVE('',#530,#531,#620,.T.);
#387=EDGE_CURVE('',#531,#509,#621,.T.);
#388=EDGE_CURVE('',#508,#532,#622,.T.);
#389=EDGE_CURVE('',#533,#532,#623,.T.);
#390=EDGE_CURVE('',#534,#533,#624,.T.);
#391=EDGE_CURVE('',#535,#534,#625,.T.);
#392=EDGE_CURVE('',#535,#526,#626,.T.);
#393=EDGE_CURVE('',#536,#537,#627,.T.);
#394=EDGE_CURVE('',#537,#538,#48,.F.);
#395=EDGE_CURVE('',#538,#539,#628,.T.);
#396=EDGE_CURVE('',#539,#540,#49,.F.);
#397=EDGE_CURVE('',#540,#541,#629,.T.);
#398=EDGE_CURVE('',#541,#502,#630,.T.);
#399=EDGE_CURVE('',#503,#542,#631,.T.);
#400=EDGE_CURVE('',#542,#543,#632,.T.);
#401=EDGE_CURVE('',#543,#544,#50,.F.);
#402=EDGE_CURVE('',#544,#545,#633,.T.);
#403=EDGE_CURVE('',#545,#546,#51,.F.);
#404=EDGE_CURVE('',#546,#547,#634,.T.);
#405=EDGE_CURVE('',#547,#548,#635,.T.);
#406=EDGE_CURVE('',#548,#549,#636,.T.);
#407=EDGE_CURVE('',#549,#550,#637,.T.);
#408=EDGE_CURVE('',#550,#551,#32,.F.);
#409=EDGE_CURVE('',#551,#552,#638,.T.);
#410=EDGE_CURVE('',#552,#553,#33,.F.);
#411=EDGE_CURVE('',#501,#553,#639,.T.);
#412=EDGE_CURVE('',#500,#536,#640,.T.);
#413=EDGE_CURVE('',#554,#554,#34,.T.);
#414=EDGE_CURVE('',#555,#555,#35,.T.);
#415=EDGE_CURVE('',#507,#556,#641,.T.);
#416=EDGE_CURVE('',#556,#522,#642,.T.);
#417=EDGE_CURVE('',#557,#521,#643,.T.);
#418=EDGE_CURVE('',#558,#557,#644,.T.);
#419=EDGE_CURVE('',#558,#532,#645,.T.);
#420=EDGE_CURVE('',#506,#559,#646,.T.);
#421=EDGE_CURVE('',#556,#559,#647,.T.);
#422=EDGE_CURVE('',#560,#560,#36,.T.);
#423=EDGE_CURVE('',#561,#561,#37,.T.);
#424=EDGE_CURVE('',#562,#562,#38,.T.);
#425=EDGE_CURVE('',#563,#563,#39,.T.);
#426=EDGE_CURVE('',#559,#523,#648,.T.);
#427=EDGE_CURVE('',#564,#564,#40,.T.);
#428=EDGE_CURVE('',#549,#534,#649,.T.);
#429=EDGE_CURVE('',#565,#533,#650,.T.);
#430=EDGE_CURVE('',#565,#566,#651,.T.);
#431=EDGE_CURVE('',#566,#520,#652,.T.);
#432=EDGE_CURVE('',#519,#550,#653,.F.);
#433=EDGE_CURVE('',#553,#516,#654,.T.);
#434=EDGE_CURVE('',#517,#552,#655,.F.);
#435=EDGE_CURVE('',#551,#518,#656,.T.);
#436=EDGE_CURVE('',#567,#567,#41,.T.);
#437=EDGE_CURVE('',#565,#558,#657,.T.);
#438=EDGE_CURVE('',#566,#557,#658,.T.);
#439=EDGE_CURVE('',#568,#568,#42,.T.);
#440=EDGE_CURVE('',#569,#569,#43,.T.);
#441=EDGE_CURVE('',#548,#535,#659,.T.);
#442=EDGE_CURVE('',#570,#571,#660,.T.);
#443=EDGE_CURVE('',#571,#572,#661,.T.);
#444=EDGE_CURVE('',#572,#573,#662,.T.);
#445=EDGE_CURVE('',#573,#570,#663,.T.);
#446=EDGE_CURVE('',#574,#575,#664,.T.);
#447=EDGE_CURVE('',#575,#576,#665,.T.);
#448=EDGE_CURVE('',#576,#577,#666,.T.);
#449=EDGE_CURVE('',#577,#574,#667,.T.);
#450=EDGE_CURVE('',#578,#579,#668,.T.);
#451=EDGE_CURVE('',#579,#580,#669,.T.);
#452=EDGE_CURVE('',#580,#581,#670,.T.);
#453=EDGE_CURVE('',#581,#578,#671,.T.);
#454=EDGE_CURVE('',#582,#583,#672,.T.);
#455=EDGE_CURVE('',#583,#584,#673,.T.);
#456=EDGE_CURVE('',#584,#585,#674,.T.);
#457=EDGE_CURVE('',#585,#582,#675,.T.);
#458=EDGE_CURVE('',#586,#587,#676,.T.);
#459=EDGE_CURVE('',#587,#588,#677,.T.);
#460=EDGE_CURVE('',#588,#589,#678,.T.);
#461=EDGE_CURVE('',#589,#586,#679,.T.);
#462=EDGE_CURVE('',#590,#591,#680,.T.);
#463=EDGE_CURVE('',#591,#592,#681,.T.);
#464=EDGE_CURVE('',#592,#593,#682,.T.);
#465=EDGE_CURVE('',#593,#590,#683,.T.);
#466=EDGE_CURVE('',#570,#547,#684,.T.);
#467=EDGE_CURVE('',#526,#573,#685,.T.);
#468=EDGE_CURVE('',#571,#546,#686,.T.);
#469=EDGE_CURVE('',#572,#578,#52,.T.);
#470=EDGE_CURVE('',#579,#571,#53,.T.);
#471=EDGE_CURVE('',#527,#572,#687,.T.);
#472=EDGE_CURVE('',#579,#545,#688,.F.);
#473=EDGE_CURVE('',#528,#578,#689,.F.);
#474=EDGE_CURVE('',#574,#531,#690,.T.);
#475=EDGE_CURVE('',#542,#577,#691,.T.);
#476=EDGE_CURVE('',#543,#576,#692,.T.);
#477=EDGE_CURVE('',#580,#544,#693,.T.);
#478=EDGE_CURVE('',#529,#581,#694,.T.);
#479=EDGE_CURVE('',#575,#530,#695,.T.);
#480=EDGE_CURVE('',#580,#576,#54,.F.);
#481=EDGE_CURVE('',#575,#581,#55,.F.);
#482=EDGE_CURVE('',#582,#541,#696,.T.);
#483=EDGE_CURVE('',#510,#585,#697,.T.);
#484=EDGE_CURVE('',#583,#540,#698,.T.);
#485=EDGE_CURVE('',#584,#590,#56,.T.);
#486=EDGE_CURVE('',#591,#583,#57,.T.);
#487=EDGE_CURVE('',#511,#584,#699,.T.);
#488=EDGE_CURVE('',#591,#539,#700,.F.);
#489=EDGE_CURVE('',#512,#590,#701,.F.);
#490=EDGE_CURVE('',#586,#515,#702,.T.);
#491=EDGE_CURVE('',#536,#589,#703,.T.);
#492=EDGE_CURVE('',#537,#588,#704,.T.);
#493=EDGE_CURVE('',#592,#538,#705,.T.);
#494=EDGE_CURVE('',#513,#593,#706,.T.);
#495=EDGE_CURVE('',#587,#514,#707,.T.);
#496=EDGE_CURVE('',#592,#588,#58,.F.);
#497=EDGE_CURVE('',#587,#593,#59,.F.);
#498=VERTEX_POINT('',#1424);
#499=VERTEX_POINT('',#1425);
#500=VERTEX_POINT('',#1427);
#501=VERTEX_POINT('',#1429);
#502=VERTEX_POINT('',#1433);
#503=VERTEX_POINT('',#1434);
#504=VERTEX_POINT('',#1436);
#505=VERTEX_POINT('',#1438);
#506=VERTEX_POINT('',#1440);
#507=VERTEX_POINT('',#1442);
#508=VERTEX_POINT('',#1444);
#509=VERTEX_POINT('',#1446);
#510=VERTEX_POINT('',#1450);
#511=VERTEX_POINT('',#1451);
#512=VERTEX_POINT('',#1456);
#513=VERTEX_POINT('',#1458);
#514=VERTEX_POINT('',#1463);
#515=VERTEX_POINT('',#1465);
#516=VERTEX_POINT('',#1468);
#517=VERTEX_POINT('',#1470);
#518=VERTEX_POINT('',#1472);
#519=VERTEX_POINT('',#1474);
#520=VERTEX_POINT('',#1476);
#521=VERTEX_POINT('',#1478);
#522=VERTEX_POINT('',#1480);
#523=VERTEX_POINT('',#1482);
#524=VERTEX_POINT('',#1486);
#525=VERTEX_POINT('',#1488);
#526=VERTEX_POINT('',#1491);
#527=VERTEX_POINT('',#1492);
#528=VERTEX_POINT('',#1497);
#529=VERTEX_POINT('',#1499);
#530=VERTEX_POINT('',#1504);
#531=VERTEX_POINT('',#1506);
#532=VERTEX_POINT('',#1509);
#533=VERTEX_POINT('',#1511);
#534=VERTEX_POINT('',#1513);
#535=VERTEX_POINT('',#1515);
#536=VERTEX_POINT('',#1519);
#537=VERTEX_POINT('',#1520);
#538=VERTEX_POINT('',#1525);
#539=VERTEX_POINT('',#1527);
#540=VERTEX_POINT('',#1532);
#541=VERTEX_POINT('',#1534);
#542=VERTEX_POINT('',#1537);
#543=VERTEX_POINT('',#1539);
#544=VERTEX_POINT('',#1544);
#545=VERTEX_POINT('',#1546);
#546=VERTEX_POINT('',#1551);
#547=VERTEX_POINT('',#1553);
#548=VERTEX_POINT('',#1555);
#549=VERTEX_POINT('',#1557);
#550=VERTEX_POINT('',#1559);
#551=VERTEX_POINT('',#1561);
#552=VERTEX_POINT('',#1563);
#553=VERTEX_POINT('',#1565);
#554=VERTEX_POINT('',#1569);
#555=VERTEX_POINT('',#1571);
#556=VERTEX_POINT('',#1574);
#557=VERTEX_POINT('',#1577);
#558=VERTEX_POINT('',#1579);
#559=VERTEX_POINT('',#1583);
#560=VERTEX_POINT('',#1586);
#561=VERTEX_POINT('',#1588);
#562=VERTEX_POINT('',#1591);
#563=VERTEX_POINT('',#1595);
#564=VERTEX_POINT('',#1602);
#565=VERTEX_POINT('',#1606);
#566=VERTEX_POINT('',#1608);
#567=VERTEX_POINT('',#1618);
#568=VERTEX_POINT('',#1628);
#569=VERTEX_POINT('',#1632);
#570=VERTEX_POINT('',#1638);
#571=VERTEX_POINT('',#1639);
#572=VERTEX_POINT('',#1641);
#573=VERTEX_POINT('',#1643);
#574=VERTEX_POINT('',#1647);
#575=VERTEX_POINT('',#1648);
#576=VERTEX_POINT('',#1650);
#577=VERTEX_POINT('',#1652);
#578=VERTEX_POINT('',#1656);
#579=VERTEX_POINT('',#1657);
#580=VERTEX_POINT('',#1659);
#581=VERTEX_POINT('',#1661);
#582=VERTEX_POINT('',#1665);
#583=VERTEX_POINT('',#1666);
#584=VERTEX_POINT('',#1668);
#585=VERTEX_POINT('',#1670);
#586=VERTEX_POINT('',#1674);
#587=VERTEX_POINT('',#1675);
#588=VERTEX_POINT('',#1677);
#589=VERTEX_POINT('',#1679);
#590=VERTEX_POINT('',#1683);
#591=VERTEX_POINT('',#1684);
#592=VERTEX_POINT('',#1686);
#593=VERTEX_POINT('',#1688);
#594=LINE('',#1423,#708);
#595=LINE('',#1426,#709);
#596=LINE('',#1428,#710);
#597=LINE('',#1430,#711);
#598=LINE('',#1432,#712);
#599=LINE('',#1435,#713);
#600=LINE('',#1437,#714);
#601=LINE('',#1439,#715);
#602=LINE('',#1441,#716);
#603=LINE('',#1443,#717);
#604=LINE('',#1445,#718);
#605=LINE('',#1447,#719);
#606=LINE('',#1449,#720);
#607=LINE('',#1457,#721);
#608=LINE('',#1464,#722);
#609=LINE('',#1466,#723);
#610=LINE('',#1467,#724);
#611=LINE('',#1471,#725);
#612=LINE('',#1475,#726);
#613=LINE('',#1477,#727);
#614=LINE('',#1479,#728);
#615=LINE('',#1481,#729);
#616=LINE('',#1483,#730);
#617=LINE('',#1484,#731);
#618=LINE('',#1490,#732);
#619=LINE('',#1498,#733);
#620=LINE('',#1505,#734);
#621=LINE('',#1507,#735);
#622=LINE('',#1508,#736);
#623=LINE('',#1510,#737);
#624=LINE('',#1512,#738);
#625=LINE('',#1514,#739);
#626=LINE('',#1516,#740);
#627=LINE('',#1518,#741);
#628=LINE('',#1526,#742);
#629=LINE('',#1533,#743);
#630=LINE('',#1535,#744);
#631=LINE('',#1536,#745);
#632=LINE('',#1538,#746);
#633=LINE('',#1545,#747);
#634=LINE('',#1552,#748);
#635=LINE('',#1554,#749);
#636=LINE('',#1556,#750);
#637=LINE('',#1558,#751);
#638=LINE('',#1562,#752);
#639=LINE('',#1566,#753);
#640=LINE('',#1567,#754);
#641=LINE('',#1573,#755);
#642=LINE('',#1575,#756);
#643=LINE('',#1576,#757);
#644=LINE('',#1578,#758);
#645=LINE('',#1580,#759);
#646=LINE('',#1582,#760);
#647=LINE('',#1584,#761);
#648=LINE('',#1598,#762);
#649=LINE('',#1604,#763);
#650=LINE('',#1605,#764);
#651=LINE('',#1607,#765);
#652=LINE('',#1609,#766);
#653=LINE('',#1610,#767);
#654=LINE('',#1612,#768);
#655=LINE('',#1614,#769);
#656=LINE('',#1615,#770);
#657=LINE('',#1622,#771);
#658=LINE('',#1624,#772);
#659=LINE('',#1635,#773);
#660=LINE('',#1637,#774);
#661=LINE('',#1640,#775);
#662=LINE('',#1642,#776);
#663=LINE('',#1644,#777);
#664=LINE('',#1646,#778);
#665=LINE('',#1649,#779);
#666=LINE('',#1651,#780);
#667=LINE('',#1653,#781);
#668=LINE('',#1655,#782);
#669=LINE('',#1658,#783);
#670=LINE('',#1660,#784);
#671=LINE('',#1662,#785);
#672=LINE('',#1664,#786);
#673=LINE('',#1667,#787);
#674=LINE('',#1669,#788);
#675=LINE('',#1671,#789);
#676=LINE('',#1673,#790);
#677=LINE('',#1676,#791);
#678=LINE('',#1678,#792);
#679=LINE('',#1680,#793);
#680=LINE('',#1682,#794);
#681=LINE('',#1685,#795);
#682=LINE('',#1687,#796);
#683=LINE('',#1689,#797);
#684=LINE('',#1691,#798);
#685=LINE('',#1692,#799);
#686=LINE('',#1694,#800);
#687=LINE('',#1705,#801);
#688=LINE('',#1710,#802);
#689=LINE('',#1715,#803);
#690=LINE('',#1717,#804);
#691=LINE('',#1718,#805);
#692=LINE('',#1720,#806);
#693=LINE('',#1722,#807);
#694=LINE('',#1724,#808);
#695=LINE('',#1726,#809);
#696=LINE('',#1745,#810);
#697=LINE('',#1746,#811);
#698=LINE('',#1748,#812);
#699=LINE('',#1759,#813);
#700=LINE('',#1764,#814);
#701=LINE('',#1769,#815);
#702=LINE('',#1771,#816);
#703=LINE('',#1772,#817);
#704=LINE('',#1774,#818);
#705=LINE('',#1776,#819);
#706=LINE('',#1778,#820);
#707=LINE('',#1780,#821);
#708=VECTOR('',#1169,1.);
#709=VECTOR('',#1170,1.);
#710=VECTOR('',#1171,1.);
#711=VECTOR('',#1172,1.);
#712=VECTOR('',#1175,1.);
#713=VECTOR('',#1176,1.);
#714=VECTOR('',#1177,1.);
#715=VECTOR('',#1178,1.);
#716=VECTOR('',#1179,1.);
#717=VECTOR('',#1180,1.);
#718=VECTOR('',#1181,1.);
#719=VECTOR('',#1182,1.);
#720=VECTOR('',#1185,1.);
#721=VECTOR('',#1186,1.);
#722=VECTOR('',#1187,1.);
#723=VECTOR('',#1188,1.);
#724=VECTOR('',#1189,1.);
#725=VECTOR('',#1192,1.);
#726=VECTOR('',#1195,1.);
#727=VECTOR('',#1196,1.);
#728=VECTOR('',#1197,1.);
#729=VECTOR('',#1198,1.);
#730=VECTOR('',#1199,1.);
#731=VECTOR('',#1200,1.);
#732=VECTOR('',#1207,1.);
#733=VECTOR('',#1208,1.);
#734=VECTOR('',#1209,1.);
#735=VECTOR('',#1210,1.);
#736=VECTOR('',#1211,1.);
#737=VECTOR('',#1212,1.);
#738=VECTOR('',#1213,1.);
#739=VECTOR('',#1214,1.);
#740=VECTOR('',#1215,1.);
#741=VECTOR('',#1218,1.);
#742=VECTOR('',#1219,1.);
#743=VECTOR('',#1220,1.);
#744=VECTOR('',#1221,1.);
#745=VECTOR('',#1222,1.);
#746=VECTOR('',#1223,1.);
#747=VECTOR('',#1224,1.);
#748=VECTOR('',#1225,1.);
#749=VECTOR('',#1226,1.);
#750=VECTOR('',#1227,1.);
#751=VECTOR('',#1228,1.);
#752=VECTOR('',#1231,1.);
#753=VECTOR('',#1234,1.);
#754=VECTOR('',#1235,1.);
#755=VECTOR('',#1242,1.);
#756=VECTOR('',#1243,1.);
#757=VECTOR('',#1244,1.);
#758=VECTOR('',#1245,1.);
#759=VECTOR('',#1246,1.);
#760=VECTOR('',#1249,1.);
#761=VECTOR('',#1250,1.);
#762=VECTOR('',#1269,1.);
#763=VECTOR('',#1278,1.);
#764=VECTOR('',#1279,1.);
#765=VECTOR('',#1280,1.);
#766=VECTOR('',#1281,1.);
#767=VECTOR('',#1282,1.);
#768=VECTOR('',#1285,1.);
#769=VECTOR('',#1288,1.);
#770=VECTOR('',#1289,1.);
#771=VECTOR('',#1300,1.);
#772=VECTOR('',#1303,1.);
#773=VECTOR('',#1320,1.);
#774=VECTOR('',#1323,1.);
#775=VECTOR('',#1324,1.);
#776=VECTOR('',#1325,1.);
#777=VECTOR('',#1326,1.);
#778=VECTOR('',#1329,1.);
#779=VECTOR('',#1330,1.);
#780=VECTOR('',#1331,1.);
#781=VECTOR('',#1332,1.);
#782=VECTOR('',#1335,1.);
#783=VECTOR('',#1336,1.);
#784=VECTOR('',#1337,1.);
#785=VECTOR('',#1338,1.);
#786=VECTOR('',#1341,1.);
#787=VECTOR('',#1342,1.);
#788=VECTOR('',#1343,1.);
#789=VECTOR('',#1344,1.);
#790=VECTOR('',#1347,1.);
#791=VECTOR('',#1348,1.);
#792=VECTOR('',#1349,1.);
#793=VECTOR('',#1350,1.);
#794=VECTOR('',#1353,1.);
#795=VECTOR('',#1354,1.);
#796=VECTOR('',#1355,1.);
#797=VECTOR('',#1356,1.);
#798=VECTOR('',#1359,1.);
#799=VECTOR('',#1360,1.);
#800=VECTOR('',#1363,1.);
#801=VECTOR('',#1368,1.);
#802=VECTOR('',#1369,1.);
#803=VECTOR('',#1370,1.);
#804=VECTOR('',#1373,1.);
#805=VECTOR('',#1374,1.);
#806=VECTOR('',#1377,1.);
#807=VECTOR('',#1380,1.);
#808=VECTOR('',#1383,1.);
#809=VECTOR('',#1386,1.);
#810=VECTOR('',#1391,1.);
#811=VECTOR('',#1392,1.);
#812=VECTOR('',#1395,1.);
#813=VECTOR('',#1400,1.);
#814=VECTOR('',#1401,1.);
#815=VECTOR('',#1402,1.);
#816=VECTOR('',#1405,1.);
#817=VECTOR('',#1406,1.);
#818=VECTOR('',#1409,1.);
#819=VECTOR('',#1412,1.);
#820=VECTOR('',#1415,1.);
#821=VECTOR('',#1418,1.);
#822=EDGE_LOOP('',(#60,#61,#62,#63));
#823=EDGE_LOOP('',(#64,#65,#66,#67,#68,#69,#70,#71));
#824=EDGE_LOOP('',(#72,#73,#74,#75,#76,#77,#78,#79,#80,#81,#82,#83,#84,
#85,#86,#87,#88,#89));
#825=EDGE_LOOP('',(#90));
#826=EDGE_LOOP('',(#91));
#827=EDGE_LOOP('',(#92,#93,#94,#95,#96,#97,#98,#99,#100,#101,#102,#103));
#828=EDGE_LOOP('',(#104,#105,#106,#107,#108,#109,#110,#111,#112,#113,#114,
#115,#116,#117,#118,#119,#120,#121,#122,#123,#124,#125));
#829=EDGE_LOOP('',(#126));
#830=EDGE_LOOP('',(#127));
#831=EDGE_LOOP('',(#128,#129,#130,#131,#132,#133,#134,#135));
#832=EDGE_LOOP('',(#136,#137,#138,#139));
#833=EDGE_LOOP('',(#140));
#834=EDGE_LOOP('',(#141));
#835=EDGE_LOOP('',(#142));
#836=EDGE_LOOP('',(#143));
#837=EDGE_LOOP('',(#144));
#838=EDGE_LOOP('',(#145));
#839=EDGE_LOOP('',(#146));
#840=EDGE_LOOP('',(#147));
#841=EDGE_LOOP('',(#148,#149,#150,#151));
#842=EDGE_LOOP('',(#152,#153,#154,#155));
#843=EDGE_LOOP('',(#156));
#844=EDGE_LOOP('',(#157));
#845=EDGE_LOOP('',(#158,#159,#160,#161,#162,#163,#164,#165));
#846=EDGE_LOOP('',(#166,#167,#168,#169));
#847=EDGE_LOOP('',(#170,#171,#172,#173));
#848=EDGE_LOOP('',(#174));
#849=EDGE_LOOP('',(#175));
#850=EDGE_LOOP('',(#176,#177,#178,#179));
#851=EDGE_LOOP('',(#180,#181,#182,#183));
#852=EDGE_LOOP('',(#184,#185,#186,#187));
#853=EDGE_LOOP('',(#188,#189,#190,#191));
#854=EDGE_LOOP('',(#192,#193,#194,#195));
#855=EDGE_LOOP('',(#196));
#856=EDGE_LOOP('',(#197));
#857=EDGE_LOOP('',(#198));
#858=EDGE_LOOP('',(#199));
#859=EDGE_LOOP('',(#200));
#860=EDGE_LOOP('',(#201));
#861=EDGE_LOOP('',(#202));
#862=EDGE_LOOP('',(#203));
#863=EDGE_LOOP('',(#204,#205,#206,#207));
#864=EDGE_LOOP('',(#208,#209,#210,#211));
#865=EDGE_LOOP('',(#212,#213,#214,#215));
#866=EDGE_LOOP('',(#216,#217,#218,#219));
#867=EDGE_LOOP('',(#220,#221,#222,#223));
#868=EDGE_LOOP('',(#224,#225,#226,#227));
#869=EDGE_LOOP('',(#228,#229,#230,#231));
#870=EDGE_LOOP('',(#232,#233,#234,#235,#236,#237));
#871=EDGE_LOOP('',(#238,#239,#240,#241));
#872=EDGE_LOOP('',(#242,#243,#244,#245));
#873=EDGE_LOOP('',(#246,#247,#248,#249));
#874=EDGE_LOOP('',(#250,#251,#252,#253));
#875=EDGE_LOOP('',(#254,#255,#256,#257));
#876=EDGE_LOOP('',(#258,#259,#260,#261,#262,#263));
#877=EDGE_LOOP('',(#264,#265,#266,#267));
#878=EDGE_LOOP('',(#268,#269,#270,#271));
#879=EDGE_LOOP('',(#272,#273,#274,#275));
#880=EDGE_LOOP('',(#276,#277,#278,#279));
#881=EDGE_LOOP('',(#280,#281,#282,#283));
#882=EDGE_LOOP('',(#284,#285,#286,#287));
#883=EDGE_LOOP('',(#288,#289,#290,#291));
#884=EDGE_LOOP('',(#292,#293,#294,#295,#296,#297));
#885=EDGE_LOOP('',(#298,#299,#300,#301));
#886=EDGE_LOOP('',(#302,#303,#304,#305));
#887=EDGE_LOOP('',(#306,#307,#308,#309));
#888=EDGE_LOOP('',(#310,#311,#312,#313));
#889=EDGE_LOOP('',(#314,#315,#316,#317));
#890=EDGE_LOOP('',(#318,#319,#320,#321,#322,#323));
#891=EDGE_LOOP('',(#324,#325,#326,#327));
#892=EDGE_LOOP('',(#328,#329,#330,#331));
#893=EDGE_LOOP('',(#332,#333,#334,#335));
#894=EDGE_LOOP('',(#336,#337,#338,#339));
#895=EDGE_LOOP('',(#340,#341,#342,#343));
#896=EDGE_LOOP('',(#344,#345,#346,#347));
#897=EDGE_LOOP('',(#348,#349,#350,#351));
#898=FACE_BOUND('',#822,.T.);
#899=FACE_BOUND('',#823,.T.);
#900=FACE_BOUND('',#824,.T.);
#901=FACE_BOUND('',#825,.T.);
#902=FACE_BOUND('',#826,.T.);
#903=FACE_BOUND('',#827,.T.);
#904=FACE_BOUND('',#828,.T.);
#905=FACE_BOUND('',#829,.T.);
#906=FACE_BOUND('',#830,.T.);
#907=FACE_BOUND('',#831,.T.);
#908=FACE_BOUND('',#832,.T.);
#909=FACE_BOUND('',#833,.T.);
#910=FACE_BOUND('',#834,.T.);
#911=FACE_BOUND('',#835,.T.);
#912=FACE_BOUND('',#836,.T.);
#913=FACE_BOUND('',#837,.T.);
#914=FACE_BOUND('',#838,.T.);
#915=FACE_BOUND('',#839,.T.);
#916=FACE_BOUND('',#840,.T.);
#917=FACE_BOUND('',#841,.T.);
#918=FACE_BOUND('',#842,.T.);
#919=FACE_BOUND('',#843,.T.);
#920=FACE_BOUND('',#844,.T.);
#921=FACE_BOUND('',#845,.T.);
#922=FACE_BOUND('',#846,.T.);
#923=FACE_BOUND('',#847,.T.);
#924=FACE_BOUND('',#848,.T.);
#925=FACE_BOUND('',#849,.T.);
#926=FACE_BOUND('',#850,.T.);
#927=FACE_BOUND('',#851,.T.);
#928=FACE_BOUND('',#852,.T.);
#929=FACE_BOUND('',#853,.T.);
#930=FACE_BOUND('',#854,.T.);
#931=FACE_BOUND('',#855,.T.);
#932=FACE_BOUND('',#856,.T.);
#933=FACE_BOUND('',#857,.T.);
#934=FACE_BOUND('',#858,.T.);
#935=FACE_BOUND('',#859,.T.);
#936=FACE_BOUND('',#860,.T.);
#937=FACE_BOUND('',#861,.T.);
#938=FACE_BOUND('',#862,.T.);
#939=FACE_BOUND('',#863,.T.);
#940=FACE_BOUND('',#864,.T.);
#941=FACE_BOUND('',#865,.T.);
#942=FACE_BOUND('',#866,.T.);
#943=FACE_BOUND('',#867,.T.);
#944=FACE_BOUND('',#868,.T.);
#945=FACE_BOUND('',#869,.T.);
#946=FACE_BOUND('',#870,.T.);
#947=FACE_BOUND('',#871,.T.);
#948=FACE_BOUND('',#872,.T.);
#949=FACE_BOUND('',#873,.T.);
#950=FACE_BOUND('',#874,.T.);
#951=FACE_BOUND('',#875,.T.);
#952=FACE_BOUND('',#876,.T.);
#953=FACE_BOUND('',#877,.T.);
#954=FACE_BOUND('',#878,.T.);
#955=FACE_BOUND('',#879,.T.);
#956=FACE_BOUND('',#880,.T.);
#957=FACE_BOUND('',#881,.T.);
#958=FACE_BOUND('',#882,.T.);
#959=FACE_BOUND('',#883,.T.);
#960=FACE_BOUND('',#884,.T.);
#961=FACE_BOUND('',#885,.T.);
#962=FACE_BOUND('',#886,.T.);
#963=FACE_BOUND('',#887,.T.);
#964=FACE_BOUND('',#888,.T.);
#965=FACE_BOUND('',#889,.T.);
#966=FACE_BOUND('',#890,.T.);
#967=FACE_BOUND('',#891,.T.);
#968=FACE_BOUND('',#892,.T.);
#969=FACE_BOUND('',#893,.T.);
#970=FACE_BOUND('',#894,.T.);
#971=FACE_BOUND('',#895,.T.);
#972=FACE_BOUND('',#896,.T.);
#973=FACE_BOUND('',#897,.T.);
#974=PLANE('',#1095);
#975=PLANE('',#1096);
#976=PLANE('',#1097);
#977=PLANE('',#1102);
#978=PLANE('',#1103);
#979=PLANE('',#1108);
#980=PLANE('',#1109);
#981=PLANE('',#1112);
#982=PLANE('',#1115);
#983=PLANE('',#1118);
#984=PLANE('',#1119);
#985=PLANE('',#1122);
#986=PLANE('',#1123);
#987=PLANE('',#1124);
#988=PLANE('',#1129);
#989=PLANE('',#1130);
#990=PLANE('',#1131);
#991=PLANE('',#1134);
#992=PLANE('',#1137);
#993=PLANE('',#1138);
#994=PLANE('',#1139);
#995=PLANE('',#1140);
#996=PLANE('',#1141);
#997=PLANE('',#1142);
#998=PLANE('',#1143);
#999=PLANE('',#1144);
#1000=PLANE('',#1145);
#1001=PLANE('',#1146);
#1002=PLANE('',#1147);
#1003=PLANE('',#1148);
#1004=PLANE('',#1149);
#1005=PLANE('',#1150);
#1006=PLANE('',#1151);
#1007=PLANE('',#1152);
#1008=PLANE('',#1153);
#1009=PLANE('',#1154);
#1010=PLANE('',#1155);
#1011=PLANE('',#1156);
#1012=PLANE('',#1157);
#1013=PLANE('',#1158);
#1014=PLANE('',#1159);
#1015=PLANE('',#1160);
#1016=PLANE('',#1161);
#1017=PLANE('',#1162);
#1018=PLANE('',#1163);
#1019=PLANE('',#1164);
#1020=ADVANCED_FACE('',(#898),#974,.F.);
#1021=ADVANCED_FACE('',(#899),#975,.F.);
#1022=ADVANCED_FACE('',(#900,#901,#902),#976,.T.);
#1023=ADVANCED_FACE('',(#903),#977,.T.);
#1024=ADVANCED_FACE('',(#904,#905,#906),#978,.F.);
#1025=ADVANCED_FACE('',(#907),#979,.T.);
#1026=ADVANCED_FACE('',(#908,#909,#910),#980,.T.);
#1027=ADVANCED_FACE('',(#911),#981,.T.);
#1028=ADVANCED_FACE('',(#912,#913),#20,.T.);
#1029=ADVANCED_FACE('',(#914),#982,.T.);
#1030=ADVANCED_FACE('',(#915,#916),#21,.T.);
#1031=ADVANCED_FACE('',(#917),#983,.T.);
#1032=ADVANCED_FACE('',(#918),#984,.F.);
#1033=ADVANCED_FACE('',(#919,#920),#22,.F.);
#1034=ADVANCED_FACE('',(#921),#985,.F.);
#1035=ADVANCED_FACE('',(#922),#986,.T.);
#1036=ADVANCED_FACE('',(#923),#987,.F.);
#1037=ADVANCED_FACE('',(#924,#925),#23,.F.);
#1038=ADVANCED_FACE('',(#926),#24,.T.);
#1039=ADVANCED_FACE('',(#927),#25,.T.);
#1040=ADVANCED_FACE('',(#928),#988,.F.);
#1041=ADVANCED_FACE('',(#929),#989,.T.);
#1042=ADVANCED_FACE('',(#930),#990,.T.);
#1043=ADVANCED_FACE('',(#931,#932),#26,.F.);
#1044=ADVANCED_FACE('',(#933,#934),#991,.F.);
#1045=ADVANCED_FACE('',(#935,#936),#27,.F.);
#1046=ADVANCED_FACE('',(#937,#938),#992,.F.);
#1047=ADVANCED_FACE('',(#939),#993,.F.);
#1048=ADVANCED_FACE('',(#940),#994,.T.);
#1049=ADVANCED_FACE('',(#941),#995,.T.);
#1050=ADVANCED_FACE('',(#942),#996,.T.);
#1051=ADVANCED_FACE('',(#943),#997,.T.);
#1052=ADVANCED_FACE('',(#944),#998,.T.);
#1053=ADVANCED_FACE('',(#945),#999,.T.);
#1054=ADVANCED_FACE('',(#946),#1000,.T.);
#1055=ADVANCED_FACE('',(#947),#1001,.T.);
#1056=ADVANCED_FACE('',(#948),#1002,.T.);
#1057=ADVANCED_FACE('',(#949),#1003,.F.);
#1058=ADVANCED_FACE('',(#950),#12,.T.);
#1059=ADVANCED_FACE('',(#951),#13,.T.);
#1060=ADVANCED_FACE('',(#952),#1004,.T.);
#1061=ADVANCED_FACE('',(#953),#1005,.T.);
#1062=ADVANCED_FACE('',(#954),#1006,.T.);
#1063=ADVANCED_FACE('',(#955),#1007,.F.);
#1064=ADVANCED_FACE('',(#956),#1008,.F.);
#1065=ADVANCED_FACE('',(#957),#14,.T.);
#1066=ADVANCED_FACE('',(#958),#15,.T.);
#1067=ADVANCED_FACE('',(#959),#1009,.T.);
#1068=ADVANCED_FACE('',(#960),#1010,.T.);
#1069=ADVANCED_FACE('',(#961),#1011,.T.);
#1070=ADVANCED_FACE('',(#962),#1012,.T.);
#1071=ADVANCED_FACE('',(#963),#1013,.F.);
#1072=ADVANCED_FACE('',(#964),#16,.T.);
#1073=ADVANCED_FACE('',(#965),#17,.T.);
#1074=ADVANCED_FACE('',(#966),#1014,.T.);
#1075=ADVANCED_FACE('',(#967),#1015,.T.);
#1076=ADVANCED_FACE('',(#968),#1016,.T.);
#1077=ADVANCED_FACE('',(#969),#1017,.F.);
#1078=ADVANCED_FACE('',(#970),#1018,.F.);
#1079=ADVANCED_FACE('',(#971),#18,.T.);
#1080=ADVANCED_FACE('',(#972),#19,.T.);
#1081=ADVANCED_FACE('',(#973),#1019,.T.);
#1082=CLOSED_SHELL('',(#1020,#1021,#1022,#1023,#1024,#1025,#1026,#1027,
#1028,#1029,#1030,#1031,#1032,#1033,#1034,#1035,#1036,#1037,#1038,#1039,
#1040,#1041,#1042,#1043,#1044,#1045,#1046,#1047,#1048,#1049,#1050,#1051,
#1052,#1053,#1054,#1055,#1056,#1057,#1058,#1059,#1060,#1061,#1062,#1063,
#1064,#1065,#1066,#1067,#1068,#1069,#1070,#1071,#1072,#1073,#1074,#1075,
#1076,#1077,#1078,#1079,#1080,#1081));
#1083=STYLED_ITEM('',(#1084),#1091);
#1084=PRESENTATION_STYLE_ASSIGNMENT((#1085));
#1085=SURFACE_STYLE_USAGE(.BOTH.,#1086);
#1086=SURFACE_SIDE_STYLE('',(#1087));
#1087=SURFACE_STYLE_FILL_AREA(#1088);
#1088=FILL_AREA_STYLE('',(#1089));
#1089=FILL_AREA_STYLE_COLOUR('',#1090);
#1090=COLOUR_RGB('',0.615686274509804,0.811764705882353,0.929411764705882);
#1091=MANIFOLD_SOLID_BREP('Part 2',#1082);
#1092=SHAPE_DEFINITION_REPRESENTATION(#1804,#1093);
#1093=SHAPE_REPRESENTATION('Part 2',(#1094),#1799);
#1094=AXIS2_PLACEMENT_3D('',#1421,#1165,#1166);
#1095=AXIS2_PLACEMENT_3D('',#1422,#1167,#1168);
#1096=AXIS2_PLACEMENT_3D('',#1431,#1173,#1174);
#1097=AXIS2_PLACEMENT_3D('',#1448,#1183,#1184);
#1098=AXIS2_PLACEMENT_3D('',#1469,#1190,#1191);
#1099=AXIS2_PLACEMENT_3D('',#1473,#1193,#1194);
#1100=AXIS2_PLACEMENT_3D('',#1485,#1201,#1202);
#1101=AXIS2_PLACEMENT_3D('',#1487,#1203,#1204);
#1102=AXIS2_PLACEMENT_3D('',#1489,#1205,#1206);
#1103=AXIS2_PLACEMENT_3D('',#1517,#1216,#1217);
#1104=AXIS2_PLACEMENT_3D('',#1560,#1229,#1230);
#1105=AXIS2_PLACEMENT_3D('',#1564,#1232,#1233);
#1106=AXIS2_PLACEMENT_3D('',#1568,#1236,#1237);
#1107=AXIS2_PLACEMENT_3D('',#1570,#1238,#1239);
#1108=AXIS2_PLACEMENT_3D('',#1572,#1240,#1241);
#1109=AXIS2_PLACEMENT_3D('',#1581,#1247,#1248);
#1110=AXIS2_PLACEMENT_3D('',#1585,#1251,#1252);
#1111=AXIS2_PLACEMENT_3D('',#1587,#1253,#1254);
#1112=AXIS2_PLACEMENT_3D('',#1589,#1255,#1256);
#1113=AXIS2_PLACEMENT_3D('',#1590,#1257,#1258);
#1114=AXIS2_PLACEMENT_3D('',#1592,#1259,#1260);
#1115=AXIS2_PLACEMENT_3D('',#1593,#1261,#1262);
#1116=AXIS2_PLACEMENT_3D('',#1594,#1263,#1264);
#1117=AXIS2_PLACEMENT_3D('',#1596,#1265,#1266);
#1118=AXIS2_PLACEMENT_3D('',#1597,#1267,#1268);
#1119=AXIS2_PLACEMENT_3D('',#1599,#1270,#1271);
#1120=AXIS2_PLACEMENT_3D('',#1600,#1272,#1273);
#1121=AXIS2_PLACEMENT_3D('',#1601,#1274,#1275);
#1122=AXIS2_PLACEMENT_3D('',#1603,#1276,#1277);
#1123=AXIS2_PLACEMENT_3D('',#1611,#1283,#1284);
#1124=AXIS2_PLACEMENT_3D('',#1613,#1286,#1287);
#1125=AXIS2_PLACEMENT_3D('',#1616,#1290,#1291);
#1126=AXIS2_PLACEMENT_3D('',#1617,#1292,#1293);
#1127=AXIS2_PLACEMENT_3D('',#1619,#1294,#1295);
#1128=AXIS2_PLACEMENT_3D('',#1620,#1296,#1297);
#1129=AXIS2_PLACEMENT_3D('',#1621,#1298,#1299);
#1130=AXIS2_PLACEMENT_3D('',#1623,#1301,#1302);
#1131=AXIS2_PLACEMENT_3D('',#1625,#1304,#1305);
#1132=AXIS2_PLACEMENT_3D('',#1626,#1306,#1307);
#1133=AXIS2_PLACEMENT_3D('',#1627,#1308,#1309);
#1134=AXIS2_PLACEMENT_3D('',#1629,#1310,#1311);
#1135=AXIS2_PLACEMENT_3D('',#1630,#1312,#1313);
#1136=AXIS2_PLACEMENT_3D('',#1631,#1314,#1315);
#1137=AXIS2_PLACEMENT_3D('',#1633,#1316,#1317);
#1138=AXIS2_PLACEMENT_3D('',#1634,#1318,#1319);
#1139=AXIS2_PLACEMENT_3D('',#1636,#1321,#1322);
#1140=AXIS2_PLACEMENT_3D('',#1645,#1327,#1328);
#1141=AXIS2_PLACEMENT_3D('',#1654,#1333,#1334);
#1142=AXIS2_PLACEMENT_3D('',#1663,#1339,#1340);
#1143=AXIS2_PLACEMENT_3D('',#1672,#1345,#1346);
#1144=AXIS2_PLACEMENT_3D('',#1681,#1351,#1352);
#1145=AXIS2_PLACEMENT_3D('',#1690,#1357,#1358);
#1146=AXIS2_PLACEMENT_3D('',#1693,#1361,#1362);
#1147=AXIS2_PLACEMENT_3D('',#1695,#1364,#1365);
#1148=AXIS2_PLACEMENT_3D('',#1704,#1366,#1367);
#1149=AXIS2_PLACEMENT_3D('',#1716,#1371,#1372);
#1150=AXIS2_PLACEMENT_3D('',#1719,#1375,#1376);
#1151=AXIS2_PLACEMENT_3D('',#1721,#1378,#1379);
#1152=AXIS2_PLACEMENT_3D('',#1723,#1381,#1382);
#1153=AXIS2_PLACEMENT_3D('',#1725,#1384,#1385);
#1154=AXIS2_PLACEMENT_3D('',#1743,#1387,#1388);
#1155=AXIS2_PLACEMENT_3D('',#1744,#1389,#1390);
#1156=AXIS2_PLACEMENT_3D('',#1747,#1393,#1394);
#1157=AXIS2_PLACEMENT_3D('',#1749,#1396,#1397);
#1158=AXIS2_PLACEMENT_3D('',#1758,#1398,#1399);
#1159=AXIS2_PLACEMENT_3D('',#1770,#1403,#1404);
#1160=AXIS2_PLACEMENT_3D('',#1773,#1407,#1408);
#1161=AXIS2_PLACEMENT_3D('',#1775,#1410,#1411);
#1162=AXIS2_PLACEMENT_3D('',#1777,#1413,#1414);
#1163=AXIS2_PLACEMENT_3D('',#1779,#1416,#1417);
#1164=AXIS2_PLACEMENT_3D('',#1797,#1419,#1420);
#1165=DIRECTION('',(0.,0.,1.));
#1166=DIRECTION('',(1.,0.,0.));
#1167=DIRECTION('',(1.,3.06717098105226E-16,0.));
#1168=DIRECTION('',(-3.06717098105226E-16,1.,0.));
#1169=DIRECTION('',(-3.06717098105226E-16,1.,0.));
#1170=DIRECTION('',(0.,0.,-1.));
#1171=DIRECTION('',(-3.06717098105226E-16,1.,0.));
#1172=DIRECTION('',(0.,0.,1.));
#1173=DIRECTION('',(1.,3.06717098105226E-16,0.));
#1174=DIRECTION('',(-3.06717098105226E-16,1.,0.));
#1175=DIRECTION('',(-3.06717098105226E-16,1.,0.));
#1176=DIRECTION('',(0.,0.,1.));
#1177=DIRECTION('',(-3.06717098105226E-16,1.,0.));
#1178=DIRECTION('',(0.,0.,1.));
#1179=DIRECTION('',(-3.06717098105226E-16,1.,0.));
#1180=DIRECTION('',(0.,0.,1.));
#1181=DIRECTION('',(-3.06717098105226E-16,1.,0.));
#1182=DIRECTION('',(0.,0.,-1.));
#1183=DIRECTION('',(0.,0.,1.));
#1184=DIRECTION('',(1.,0.,0.));
#1185=DIRECTION('',(0.866025403784438,0.5,0.));
#1186=DIRECTION('',(0.,-1.,0.));
#1187=DIRECTION('',(-0.866025403784439,0.5,0.));
#1188=DIRECTION('',(-0.8660254037847,-0.499999999999547,0.));
#1189=DIRECTION('',(1.,0.,0.));
#1190=DIRECTION('',(0.,0.,1.));
#1191=DIRECTION('',(1.,0.,0.));
#1192=DIRECTION('',(0.,-1.,0.));
#1193=DIRECTION('',(0.,0.,1.));
#1194=DIRECTION('',(1.,0.,0.));
#1195=DIRECTION('',(1.,0.,0.));
#1196=DIRECTION('',(0.,-1.,0.));
#1197=DIRECTION('',(1.,0.,0.));
#1198=DIRECTION('',(0.,-1.,0.));
#1199=DIRECTION('',(1.,1.21415466385078E-16,0.));
#1200=DIRECTION('',(0.866025403784681,-0.49999999999958,0.));
#1201=DIRECTION('',(0.,0.,1.));
#1202=DIRECTION('',(1.,0.,0.));
#1203=DIRECTION('',(0.,0.,1.));
#1204=DIRECTION('',(1.,0.,0.));
#1205=DIRECTION('',(0.,0.,1.));
#1206=DIRECTION('',(1.,0.,0.));
#1207=DIRECTION('',(0.866025403784438,0.5,0.));
#1208=DIRECTION('',(0.,-1.,0.));
#1209=DIRECTION('',(-0.86602540378444,0.5,0.));
#1210=DIRECTION('',(-0.866025403784444,-0.499999999999991,0.));
#1211=DIRECTION('',(1.,0.,0.));
#1212=DIRECTION('',(0.,-1.,0.));
#1213=DIRECTION('',(1.,0.,0.));
#1214=DIRECTION('',(-3.06717098105226E-16,1.,0.));
#1215=DIRECTION('',(0.866025403784433,-0.50000000000001,0.));
#1216=DIRECTION('',(0.,0.,1.));
#1217=DIRECTION('',(1.,0.,0.));
#1218=DIRECTION('',(0.866025403784439,-0.5,0.));
#1219=DIRECTION('',(0.,1.,0.));
#1220=DIRECTION('',(-0.866025403784438,-0.5,0.));
#1221=DIRECTION('',(-0.866025403784681,0.49999999999958,0.));
#1222=DIRECTION('',(0.866025403784444,0.499999999999991,0.));
#1223=DIRECTION('',(0.86602540378444,-0.5,0.));
#1224=DIRECTION('',(0.,1.,0.));
#1225=DIRECTION('',(-0.866025403784438,-0.5,0.));
#1226=DIRECTION('',(-0.866025403784433,0.50000000000001,0.));
#1227=DIRECTION('',(-3.06717098105226E-16,1.,0.));
#1228=DIRECTION('',(1.,0.,0.));
#1229=DIRECTION('',(0.,0.,1.));
#1230=DIRECTION('',(1.,0.,0.));
#1231=DIRECTION('',(0.,-1.,0.));
#1232=DIRECTION('',(0.,0.,1.));
#1233=DIRECTION('',(1.,0.,0.));
#1234=DIRECTION('',(1.,0.,0.));
#1235=DIRECTION('',(0.8660254037847,0.499999999999547,0.));
#1236=DIRECTION('',(0.,0.,1.));
#1237=DIRECTION('',(1.,0.,0.));
#1238=DIRECTION('',(0.,0.,1.));
#1239=DIRECTION('',(1.,0.,0.));
#1240=DIRECTION('',(0.,-1.,0.));
#1241=DIRECTION('',(0.,0.,-1.));
#1242=DIRECTION('',(1.,0.,0.));
#1243=DIRECTION('',(0.,0.,1.));
#1244=DIRECTION('',(0.,0.,1.));
#1245=DIRECTION('',(1.,0.,0.));
#1246=DIRECTION('',(0.,0.,1.));
#1247=DIRECTION('',(0.,0.,1.));
#1248=DIRECTION('',(1.,0.,0.));
#1249=DIRECTION('',(1.,1.21415466385078E-16,0.));
#1250=DIRECTION('',(0.,-1.,0.));
#1251=DIRECTION('',(0.,0.,1.));
#1252=DIRECTION('',(1.,0.,0.));
#1253=DIRECTION('',(0.,0.,1.));
#1254=DIRECTION('',(1.,0.,0.));
#1255=DIRECTION('',(0.,0.,1.));
#1256=DIRECTION('',(1.,0.,0.));
#1257=DIRECTION('',(0.,0.,1.));
#1258=DIRECTION('',(1.,0.,0.));
#1259=DIRECTION('',(0.,0.,-1.));
#1260=DIRECTION('',(-1.,0.,0.));
#1261=DIRECTION('',(0.,0.,1.));
#1262=DIRECTION('',(1.,0.,0.));
#1263=DIRECTION('',(0.,0.,1.));
#1264=DIRECTION('',(1.,0.,0.));
#1265=DIRECTION('',(0.,0.,-1.));
#1266=DIRECTION('',(-1.,0.,0.));
#1267=DIRECTION('',(-1.,0.,0.));
#1268=DIRECTION('',(0.,0.,1.));
#1269=DIRECTION('',(0.,0.,1.));
#1270=DIRECTION('',(1.21415466385078E-16,-1.,0.));
#1271=DIRECTION('',(1.,1.21415466385078E-16,0.));
#1272=DIRECTION('',(0.,0.,-1.));
#1273=DIRECTION('',(-1.,0.,0.));
#1274=DIRECTION('',(0.,0.,1.));
#1275=DIRECTION('',(1.,0.,0.));
#1276=DIRECTION('',(0.,-1.,0.));
#1277=DIRECTION('',(0.,0.,-1.));
#1278=DIRECTION('',(0.,0.,1.));
#1279=DIRECTION('',(0.,0.,1.));
#1280=DIRECTION('',(1.,0.,0.));
#1281=DIRECTION('',(0.,0.,1.));
#1282=DIRECTION('',(0.,0.,1.));
#1283=DIRECTION('',(0.,-1.,0.));
#1284=DIRECTION('',(0.,0.,-1.));
#1285=DIRECTION('',(0.,0.,1.));
#1286=DIRECTION('',(-1.,0.,0.));
#1287=DIRECTION('',(0.,0.,1.));
#1288=DIRECTION('',(0.,0.,1.));
#1289=DIRECTION('',(0.,0.,1.));
#1290=DIRECTION('',(0.,0.,-1.));
#1291=DIRECTION('',(-1.,0.,0.));
#1292=DIRECTION('',(0.,0.,1.));
#1293=DIRECTION('',(1.,0.,0.));
#1294=DIRECTION('',(0.,0.,-1.));
#1295=DIRECTION('',(-1.,0.,0.));
#1296=DIRECTION('',(0.,0.,1.));
#1297=DIRECTION('',(1.,0.,0.));
#1298=DIRECTION('',(-1.,0.,0.));
#1299=DIRECTION('',(0.,0.,1.));
#1300=DIRECTION('',(0.,-1.,0.));
#1301=DIRECTION('',(-1.,0.,0.));
#1302=DIRECTION('',(0.,0.,1.));
#1303=DIRECTION('',(0.,-1.,0.));
#1304=DIRECTION('',(0.,0.,1.));
#1305=DIRECTION('',(1.,0.,0.));
#1306=DIRECTION('',(0.,0.,1.));
#1307=DIRECTION('',(1.,0.,0.));
#1308=DIRECTION('',(0.,0.,1.));
#1309=DIRECTION('',(1.,0.,0.));
#1310=DIRECTION('',(0.,0.,1.));
#1311=DIRECTION('',(1.,0.,0.));
#1312=DIRECTION('',(0.,0.,1.));
#1313=DIRECTION('',(1.,0.,0.));
#1314=DIRECTION('',(0.,0.,1.));
#1315=DIRECTION('',(1.,0.,0.));
#1316=DIRECTION('',(0.,0.,1.));
#1317=DIRECTION('',(1.,0.,0.));
#1318=DIRECTION('',(1.,3.06717098105226E-16,0.));
#1319=DIRECTION('',(-3.06717098105226E-16,1.,0.));
#1320=DIRECTION('',(0.,0.,1.));
#1321=DIRECTION('',(0.5,-0.866025403784438,0.));
#1322=DIRECTION('',(0.866025403784438,0.5,0.));
#1323=DIRECTION('',(0.866025403784438,0.5,0.));
#1324=DIRECTION('',(0.,0.,1.));
#1325=DIRECTION('',(-0.866025403784438,-0.5,0.));
#1326=DIRECTION('',(0.,0.,-1.));
#1327=DIRECTION('',(0.5,0.86602540378444,0.));
#1328=DIRECTION('',(-0.86602540378444,0.5,0.));
#1329=DIRECTION('',(0.86602540378444,-0.5,0.));
#1330=DIRECTION('',(0.,0.,-1.));
#1331=DIRECTION('',(-0.86602540378444,0.5,0.));
#1332=DIRECTION('',(0.,0.,1.));
#1333=DIRECTION('',(-1.,0.,0.));
#1334=DIRECTION('',(0.,0.,1.));
#1335=DIRECTION('',(0.,0.,-1.));
#1336=DIRECTION('',(0.,-1.,0.));
#1337=DIRECTION('',(0.,0.,1.));
#1338=DIRECTION('',(0.,1.,0.));
#1339=DIRECTION('',(0.5,-0.866025403784438,0.));
#1340=DIRECTION('',(0.866025403784438,0.5,0.));
#1341=DIRECTION('',(0.866025403784438,0.5,0.));
#1342=DIRECTION('',(0.,0.,1.));
#1343=DIRECTION('',(-0.866025403784438,-0.5,0.));
#1344=DIRECTION('',(0.,0.,-1.));
#1345=DIRECTION('',(0.5,0.866025403784439,0.));
#1346=DIRECTION('',(-0.866025403784439,0.5,0.));
#1347=DIRECTION('',(0.866025403784439,-0.5,0.));
#1348=DIRECTION('',(0.,0.,-1.));
#1349=DIRECTION('',(-0.866025403784439,0.5,0.));
#1350=DIRECTION('',(0.,0.,1.));
#1351=DIRECTION('',(-1.,0.,0.));
#1352=DIRECTION('',(0.,0.,1.));
#1353=DIRECTION('',(0.,0.,-1.));
#1354=DIRECTION('',(0.,-1.,0.));
#1355=DIRECTION('',(0.,0.,1.));
#1356=DIRECTION('',(0.,1.,0.));
#1357=DIRECTION('',(-0.50000000000001,-0.866025403784433,0.));
#1358=DIRECTION('',(0.,0.,-1.));
#1359=DIRECTION('',(-0.65465367070795,0.377964473009222,-0.654653670708008));
#1360=DIRECTION('',(0.654653670707948,-0.37796447300922,-0.654653670708011));
#1361=DIRECTION('',(0.353553390593288,-0.612372435695817,-0.707106781186521));
#1362=DIRECTION('',(-0.866025403784438,-0.5,0.));
#1363=DIRECTION('',(-0.35355339059326,0.612372435695774,-0.707106781186572));
#1364=DIRECTION('',(-0.499999999999988,-0.866025403784446,0.));
#1365=DIRECTION('',(0.,0.,-1.));
#1366=DIRECTION('',(-0.353553390593289,0.612372435695819,-0.707106781186519));
#1367=DIRECTION('',(0.866025403784438,0.5,0.));
#1368=DIRECTION('',(0.353553390593257,-0.612372435695769,-0.707106781186578));
#1369=DIRECTION('',(-0.707106781186545,0.,0.707106781186551));
#1370=DIRECTION('',(0.707106781186543,0.,0.707106781186552));
#1371=DIRECTION('',(-0.499999999999991,0.866025403784444,0.));
#1372=DIRECTION('',(0.,0.,-1.));
#1373=DIRECTION('',(-0.654653670707952,-0.377964473009204,0.654653670708016));
#1374=DIRECTION('',(0.654653670707953,0.377964473009205,0.654653670708014));
#1375=DIRECTION('',(0.353553390593292,0.612372435695827,-0.70710678118651));
#1376=DIRECTION('',(0.86602540378444,-0.5,0.));
#1377=DIRECTION('',(0.353553390593256,0.612372435695761,0.707106781186585));
#1378=DIRECTION('',(-0.707106781186551,0.,-0.707106781186545));
#1379=DIRECTION('',(0.,1.,0.));
#1380=DIRECTION('',(0.707106781186545,0.,-0.707106781186551));
#1381=DIRECTION('',(0.707106781186552,0.,-0.707106781186543));
#1382=DIRECTION('',(0.,-1.,0.));
#1383=DIRECTION('',(-0.707106781186543,0.,-0.707106781186552));
#1384=DIRECTION('',(-0.353553390593293,-0.612372435695829,-0.707106781186508));
#1385=DIRECTION('',(-0.86602540378444,0.5,0.));
#1386=DIRECTION('',(-0.353553390593254,-0.612372435695759,0.707106781186588));
#1387=DIRECTION('',(-0.499999999999988,0.866025403784446,0.));
#1388=DIRECTION('',(0.,0.,-1.));
#1389=DIRECTION('',(-0.49999999999958,-0.866025403784681,0.));
#1390=DIRECTION('',(0.,0.,-1.));
#1391=DIRECTION('',(-0.654653670707758,0.377964473008678,-0.654653670708514));
#1392=DIRECTION('',(0.654653670707756,-0.377964473008677,-0.654653670708516));
#1393=DIRECTION('',(0.353553390593578,-0.612372435696318,-0.707106781185942));
#1394=DIRECTION('',(-0.866025403784438,-0.5,0.));
#1395=DIRECTION('',(-0.35355339059298,0.612372435695281,-0.707106781187139));
#1396=DIRECTION('',(-0.500000000000006,-0.866025403784435,0.));
#1397=DIRECTION('',(0.,0.,-1.));
#1398=DIRECTION('',(-0.353553390593579,0.61237243569632,-0.70710678118594));
#1399=DIRECTION('',(0.866025403784438,0.5,0.));
#1400=DIRECTION('',(0.35355339059297,-0.612372435695257,-0.707106781187165));
#1401=DIRECTION('',(-0.707106781186545,0.,0.707106781186551));
#1402=DIRECTION('',(0.707106781186543,0.,0.707106781186552));
#1403=DIRECTION('',(-0.499999999999547,0.8660254037847,0.));
#1404=DIRECTION('',(0.,0.,-1.));
#1405=DIRECTION('',(-0.65465367070776,-0.377964473008645,0.65465367070853));
#1406=DIRECTION('',(0.654653670707762,0.377964473008646,0.654653670708527));
#1407=DIRECTION('',(0.353553390593588,0.612372435696337,-0.707106781185921));
#1408=DIRECTION('',(0.866025403784439,-0.5,0.));
#1409=DIRECTION('',(0.353553390592971,0.612372435695259,0.707106781187163));
#1410=DIRECTION('',(-0.707106781186551,0.,-0.707106781186545));
#1411=DIRECTION('',(0.,1.,0.));
#1412=DIRECTION('',(0.707106781186545,0.,-0.707106781186551));
#1413=DIRECTION('',(0.707106781186552,0.,-0.707106781186543));
#1414=DIRECTION('',(0.,-1.,0.));
#1415=DIRECTION('',(-0.707106781186543,0.,-0.707106781186552));
#1416=DIRECTION('',(-0.353553390593589,-0.612372435696339,-0.707106781185918));
#1417=DIRECTION('',(-0.866025403784439,0.5,0.));
#1418=DIRECTION('',(-0.353553390592968,-0.612372435695253,0.70710678118717));
#1419=DIRECTION('',(-0.499999999999988,0.866025403784446,0.));
#1420=DIRECTION('',(0.,0.,-1.));
#1421=CARTESIAN_POINT('',(0.,0.,0.));
#1422=CARTESIAN_POINT('',(0.0143316378816962,0.00141066573233156,0.));
#1423=CARTESIAN_POINT('',(0.0143316378816962,0.00141079073233157,-0.000797));
#1424=CARTESIAN_POINT('',(0.0143316378816962,-0.0605485842676684,-0.000797));
#1425=CARTESIAN_POINT('',(0.0143316378816962,-0.0584985842676684,-0.000797));
#1426=CARTESIAN_POINT('',(0.0143316378816962,-0.0584985842676684,-0.013073));
#1427=CARTESIAN_POINT('',(0.0143316378816962,-0.0584985842676684,-0.013073));
#1428=CARTESIAN_POINT('',(0.0143316378816962,0.00141079073233157,-0.013073));
#1429=CARTESIAN_POINT('',(0.0143316378816962,-0.0605485842676684,-0.013073));
#1430=CARTESIAN_POINT('',(0.0143316378816962,-0.0605485842676684,-0.013073));
#1431=CARTESIAN_POINT('',(0.0143316378816962,0.00141066573233156,0.));
#1432=CARTESIAN_POINT('',(0.0143316378816962,0.00141079073233157,-0.013073));
#1433=CARTESIAN_POINT('',(0.0143316378816962,-0.0565985842676684,-0.013073));
#1434=CARTESIAN_POINT('',(0.0143316378816962,0.0594201657323316,-0.013073));
#1435=CARTESIAN_POINT('',(0.0143316378816962,-0.0565985842676684,-0.000797));
#1436=CARTESIAN_POINT('',(0.0143316378816962,-0.0565985842676684,-0.000797));
#1437=CARTESIAN_POINT('',(0.0143316378816962,0.00141079073233157,-0.000797));
#1438=CARTESIAN_POINT('',(0.0143316378816962,-0.0545485842676684,-0.000797));
#1439=CARTESIAN_POINT('',(0.0143316378816962,-0.0545485842676684,-0.011297));
#1440=CARTESIAN_POINT('',(0.0143316378816962,-0.0545485842676684,-0.010073));
#1441=CARTESIAN_POINT('',(0.0143316378816962,0.00141079073233157,-0.010073));
#1442=CARTESIAN_POINT('',(0.0143316378816962,0.0573701657323316,-0.010073));
#1443=CARTESIAN_POINT('',(0.0143316378816962,0.0573701657323316,-0.011297));
#1444=CARTESIAN_POINT('',(0.0143316378816962,0.0573701657323316,-0.000797));
#1445=CARTESIAN_POINT('',(0.0143316378816962,0.00141079073233157,-0.000797));
#1446=CARTESIAN_POINT('',(0.0143316378816962,0.0594201657323316,-0.000797));
#1447=CARTESIAN_POINT('',(0.0143316378816962,0.0594201657323316,-0.013073));
#1448=CARTESIAN_POINT('',(0.0143316378816962,0.00141079073233157,-0.000797));
#1449=CARTESIAN_POINT('',(0.0394793015989848,-0.0421462405176684,-0.000797));
#1450=CARTESIAN_POINT('',(0.0143893729086153,-0.0566319176010018,-0.000797));
#1451=CARTESIAN_POINT('',(0.0158327485815892,-0.0557985842676685,-0.000797));
#1452=CARTESIAN_POINT('',(0.0162636886892651,-0.0559985842676684,-0.000797));
#1453=CARTESIAN_POINT('',(0.0161200419867065,-0.0559319176010018,-0.000797));
#1454=CARTESIAN_POINT('',(0.0159763952841479,-0.0558652509343351,-0.000797));
#1455=CARTESIAN_POINT('',(0.0158327485815892,-0.0557985842676685,-0.000797));
#1456=CARTESIAN_POINT('',(0.0162636886892651,-0.0559985842676684,-0.000797));
#1457=CARTESIAN_POINT('',(0.0162636886892651,0.00141079073233157,-0.000797));
#1458=CARTESIAN_POINT('',(0.0162636886892651,-0.0590985842676684,-0.000797));
#1459=CARTESIAN_POINT('',(0.0158327485815892,-0.0592985842676684,-0.000797));
#1460=CARTESIAN_POINT('',(0.0159763952841479,-0.0592319176010017,-0.000797));
#1461=CARTESIAN_POINT('',(0.0161200419867065,-0.0591652509343351,-0.000797));
#1462=CARTESIAN_POINT('',(0.0162636886892651,-0.0590985842676684,-0.000797));
#1463=CARTESIAN_POINT('',(0.0158327485815892,-0.0592985842676684,-0.000797));
#1464=CARTESIAN_POINT('',(-0.0115810149422685,-0.0434712405176684,-0.000797));
#1465=CARTESIAN_POINT('',(0.0143893729086153,-0.0584652509343351,-0.000797));
#1466=CARTESIAN_POINT('',(0.0402731582191048,-0.0435212405176956,-0.000797));
#1467=CARTESIAN_POINT('',(0.0143316378816962,-0.0605485842676684,-0.000797));
#1468=CARTESIAN_POINT('',(0.186781637881696,-0.0605485842676684,-0.000797));
#1469=CARTESIAN_POINT('',(0.186781637881696,-0.0555485842676684,-0.000797));
#1470=CARTESIAN_POINT('',(0.191781637881696,-0.0555485842676684,-0.000797));
#1471=CARTESIAN_POINT('',(0.191781637881696,0.00141079073233157,-0.000797));
#1472=CARTESIAN_POINT('',(0.191781637881696,0.0583701657323316,-0.000797));
#1473=CARTESIAN_POINT('',(0.186781637881696,0.0583701657323316,-0.000797));
#1474=CARTESIAN_POINT('',(0.186781637881696,0.0633701657323316,-0.000797));
#1475=CARTESIAN_POINT('',(0.0143316378816962,0.0633701657323316,-0.000797));
#1476=CARTESIAN_POINT('',(0.162158537881696,0.0633701657323316,-0.000797));
#1477=CARTESIAN_POINT('',(0.162158537881696,0.0603701657323316,-0.000797));
#1478=CARTESIAN_POINT('',(0.162158537881696,0.0573701657323316,-0.000797));
#1479=CARTESIAN_POINT('',(0.0143316378816962,0.0573701657323316,-0.000797));
#1480=CARTESIAN_POINT('',(0.185781637881696,0.0573701657323316,-0.000797));
#1481=CARTESIAN_POINT('',(0.185781637881696,0.00141079073233159,-0.000797));
#1482=CARTESIAN_POINT('',(0.185781637881696,-0.0545485842676684,-0.000797));
#1483=CARTESIAN_POINT('',(0.0143316378816962,-0.0545485842676684,-0.000797));
#1484=CARTESIAN_POINT('',(-0.0107871583221187,-0.0420962405176927,-0.000797));
#1485=CARTESIAN_POINT('',(0.187681637881697,-0.0564485842676684,-0.000797));
#1486=CARTESIAN_POINT('',(0.189281637881696,-0.0564485842676684,-0.000797));
#1487=CARTESIAN_POINT('',(0.187681637881696,0.0592701657323316,-0.000797));
#1488=CARTESIAN_POINT('',(0.189281637881696,0.0592701657323316,-0.000797));
#1489=CARTESIAN_POINT('',(0.0143316378816962,0.00141079073233157,-0.000797));
#1490=CARTESIAN_POINT('',(-0.0115810149422685,0.0462928219823315,-0.000797));
#1491=CARTESIAN_POINT('',(0.0143893729086152,0.0612868323989982,-0.000797));
#1492=CARTESIAN_POINT('',(0.0158327485815892,0.0621201657323316,-0.000797));
#1493=CARTESIAN_POINT('',(0.0162636886892651,0.0619201657323316,-0.000797));
#1494=CARTESIAN_POINT('',(0.0161200419867065,0.0619868323989983,-0.000797));
#1495=CARTESIAN_POINT('',(0.0159763952841479,0.0620534990656649,-0.000797));
#1496=CARTESIAN_POINT('',(0.0158327485815892,0.0621201657323316,-0.000797));
#1497=CARTESIAN_POINT('',(0.0162636886892651,0.0619201657323316,-0.000797));
#1498=CARTESIAN_POINT('',(0.0162636886892651,0.00141079073233157,-0.000797));
#1499=CARTESIAN_POINT('',(0.0162636886892651,0.0588201657323316,-0.000797));
#1500=CARTESIAN_POINT('',(0.0158327485815893,0.0586201657323316,-0.000797));
#1501=CARTESIAN_POINT('',(0.0159763952841479,0.0586868323989983,-0.000797));
#1502=CARTESIAN_POINT('',(0.0161200419867065,0.0587534990656649,-0.000797));
#1503=CARTESIAN_POINT('',(0.0162636886892651,0.0588201657323316,-0.000797));
#1504=CARTESIAN_POINT('',(0.0158327485815892,0.0586201657323316,-0.000797));
#1505=CARTESIAN_POINT('',(0.0394793015989846,0.0449678219823317,-0.000797));
#1506=CARTESIAN_POINT('',(0.0143893729086152,0.0594534990656649,-0.000797));
#1507=CARTESIAN_POINT('',(-0.0107871583221324,0.0449178219823321,-0.000797));
#1508=CARTESIAN_POINT('',(0.0143316378816962,0.0573701657323316,-0.000797));
#1509=CARTESIAN_POINT('',(0.139078537881696,0.0573701657323316,-0.000797));
#1510=CARTESIAN_POINT('',(0.139078537881696,0.0603701657323316,-0.000797));
#1511=CARTESIAN_POINT('',(0.139078537881696,0.0633701657323316,-0.000797));
#1512=CARTESIAN_POINT('',(0.0143316378816962,0.0633701657323316,-0.000797));
#1513=CARTESIAN_POINT('',(0.0143316378816962,0.0633701657323316,-0.000797));
#1514=CARTESIAN_POINT('',(0.0143316378816962,0.00141079073233157,-0.000797));
#1515=CARTESIAN_POINT('',(0.0143316378816962,0.0613201657323316,-0.000797));
#1516=CARTESIAN_POINT('',(0.0402731582191207,0.046342821982331,-0.000797));
#1517=CARTESIAN_POINT('',(0.0143316378816962,0.00141079073233157,-0.013073));
#1518=CARTESIAN_POINT('',(0.0160059536623461,-0.0593985842676684,-0.013073));
#1519=CARTESIAN_POINT('',(0.0143893729086153,-0.0584652509343351,-0.013073));
#1520=CARTESIAN_POINT('',(0.0158327485815892,-0.0592985842676684,-0.013073));
#1521=CARTESIAN_POINT('',(0.0162636886892651,-0.0590985842676684,-0.013073));
#1522=CARTESIAN_POINT('',(0.0161200419867065,-0.0591652509343351,-0.013073));
#1523=CARTESIAN_POINT('',(0.0159763952841479,-0.0592319176010017,-0.013073));
#1524=CARTESIAN_POINT('',(0.0158327485815893,-0.0592985842676684,-0.013073));
#1525=CARTESIAN_POINT('',(0.0162636886892651,-0.0590985842676684,-0.013073));
#1526=CARTESIAN_POINT('',(0.0162636886892651,-0.0557985842676684,-0.013073));
#1527=CARTESIAN_POINT('',(0.0162636886892651,-0.0559985842676684,-0.013073));
#1528=CARTESIAN_POINT('',(0.0158327485815893,-0.0557985842676685,-0.013073));
#1529=CARTESIAN_POINT('',(0.0159763952841479,-0.0558652509343351,-0.013073));
#1530=CARTESIAN_POINT('',(0.0161200419867065,-0.0559319176010018,-0.013073));
#1531=CARTESIAN_POINT('',(0.0162636886892651,-0.0559985842676684,-0.013073));
#1532=CARTESIAN_POINT('',(0.0158327485815892,-0.0557985842676685,-0.013073));
#1533=CARTESIAN_POINT('',(0.0142739028547774,-0.0566985842676684,-0.013073));
#1534=CARTESIAN_POINT('',(0.0143893729086153,-0.0566319176010018,-0.013073));
#1535=CARTESIAN_POINT('',(0.0143316378816962,-0.0565985842676684,-0.013073));
#1536=CARTESIAN_POINT('',(0.0145048429624531,0.0595201657323316,-0.013073));
#1537=CARTESIAN_POINT('',(0.0143893729086152,0.0594534990656649,-0.013073));
#1538=CARTESIAN_POINT('',(0.0160059536623461,0.0585201657323316,-0.013073));
#1539=CARTESIAN_POINT('',(0.0158327485815892,0.0586201657323316,-0.013073));
#1540=CARTESIAN_POINT('',(0.0162636886892651,0.0588201657323316,-0.013073));
#1541=CARTESIAN_POINT('',(0.0161200419867065,0.0587534990656649,-0.013073));
#1542=CARTESIAN_POINT('',(0.0159763952841479,0.0586868323989983,-0.013073));
#1543=CARTESIAN_POINT('',(0.0158327485815892,0.0586201657323316,-0.013073));
#1544=CARTESIAN_POINT('',(0.0162636886892651,0.0588201657323316,-0.013073));
#1545=CARTESIAN_POINT('',(0.0162636886892651,0.0621201657323316,-0.013073));
#1546=CARTESIAN_POINT('',(0.0162636886892651,0.0619201657323316,-0.013073));
#1547=CARTESIAN_POINT('',(0.0158327485815892,0.0621201657323316,-0.013073));
#1548=CARTESIAN_POINT('',(0.0159763952841479,0.0620534990656649,-0.013073));
#1549=CARTESIAN_POINT('',(0.0161200419867065,0.0619868323989983,-0.013073));
#1550=CARTESIAN_POINT('',(0.0162636886892651,0.0619201657323316,-0.013073));
#1551=CARTESIAN_POINT('',(0.0158327485815892,0.0621201657323316,-0.013073));
#1552=CARTESIAN_POINT('',(0.0142739028547772,0.0612201657323316,-0.013073));
#1553=CARTESIAN_POINT('',(0.0143893729086152,0.0612868323989982,-0.013073));
#1554=CARTESIAN_POINT('',(0.0143316378816962,0.0613201657323316,-0.013073));
#1555=CARTESIAN_POINT('',(0.0143316378816962,0.0613201657323316,-0.013073));
#1556=CARTESIAN_POINT('',(0.0143316378816962,0.00141079073233157,-0.013073));
#1557=CARTESIAN_POINT('',(0.0143316378816962,0.0633701657323316,-0.013073));
#1558=CARTESIAN_POINT('',(0.0143316378816962,0.0633701657323316,-0.013073));
#1559=CARTESIAN_POINT('',(0.186781637881696,0.0633701657323316,-0.013073));
#1560=CARTESIAN_POINT('',(0.186781637881696,0.0583701657323316,-0.013073));
#1561=CARTESIAN_POINT('',(0.191781637881696,0.0583701657323316,-0.013073));
#1562=CARTESIAN_POINT('',(0.191781637881696,0.00141079073233157,-0.013073));
#1563=CARTESIAN_POINT('',(0.191781637881696,-0.0555485842676684,-0.013073));
#1564=CARTESIAN_POINT('',(0.186781637881696,-0.0555485842676684,-0.013073));
#1565=CARTESIAN_POINT('',(0.186781637881696,-0.0605485842676684,-0.013073));
#1566=CARTESIAN_POINT('',(0.0143316378816962,-0.0605485842676684,-0.013073));
#1567=CARTESIAN_POINT('',(0.0145048429624532,-0.0583985842676685,-0.013073));
#1568=CARTESIAN_POINT('',(0.187681637881697,-0.0564485842676684,-0.013073));
#1569=CARTESIAN_POINT('',(0.190281637881696,-0.0564485842676684,-0.013073));
#1570=CARTESIAN_POINT('',(0.187681637881696,0.0592701657323316,-0.013073));
#1571=CARTESIAN_POINT('',(0.190281637881696,0.0592701657323316,-0.013073));
#1572=CARTESIAN_POINT('',(0.0143316378816962,0.0573701657323316,-0.011297));
#1573=CARTESIAN_POINT('',(0.0143316378816962,0.0573701657323316,-0.010073));
#1574=CARTESIAN_POINT('',(0.185781637881696,0.0573701657323316,-0.010073));
#1575=CARTESIAN_POINT('',(0.185781637881696,0.0573701657323316,-0.011297));
#1576=CARTESIAN_POINT('',(0.162158537881696,0.0573701657323316,-0.004797));
#1577=CARTESIAN_POINT('',(0.162158537881696,0.0573701657323316,-0.004797));
#1578=CARTESIAN_POINT('',(0.0143316378816962,0.0573701657323316,-0.004797));
#1579=CARTESIAN_POINT('',(0.139078537881696,0.0573701657323316,-0.004797));
#1580=CARTESIAN_POINT('',(0.139078537881696,0.0573701657323316,-0.004797));
#1581=CARTESIAN_POINT('',(0.0143316378816962,0.00141079073233157,-0.010073));
#1582=CARTESIAN_POINT('',(0.0143316378816962,-0.0545485842676684,-0.010073));
#1583=CARTESIAN_POINT('',(0.185781637881696,-0.0545485842676684,-0.010073));
#1584=CARTESIAN_POINT('',(0.185781637881696,0.00141079073233157,-0.010073));
#1585=CARTESIAN_POINT('',(0.179281637881696,0.0508701657323316,-0.010073));
#1586=CARTESIAN_POINT('',(0.181781637881696,0.0508701657323316,-0.010073));
#1587=CARTESIAN_POINT('',(0.179281637881696,-0.0480485842676684,-0.010073));
#1588=CARTESIAN_POINT('',(0.181781637881696,-0.0480485842676684,-0.010073));
#1589=CARTESIAN_POINT('',(0.0143316378816962,0.00141079073233157,-0.005323));
#1590=CARTESIAN_POINT('',(0.179281637881696,0.0508701657323316,-0.005323));
#1591=CARTESIAN_POINT('',(0.181781637881696,0.0508701657323316,-0.005323));
#1592=CARTESIAN_POINT('',(0.179281637881696,0.0508701657323316,-0.005323));
#1593=CARTESIAN_POINT('',(0.0143316378816962,0.00141079073233157,-0.005323));
#1594=CARTESIAN_POINT('',(0.179281637881696,-0.0480485842676684,-0.005323));
#1595=CARTESIAN_POINT('',(0.181781637881696,-0.0480485842676684,-0.005323));
#1596=CARTESIAN_POINT('',(0.179281637881696,-0.0480485842676684,-0.005323));
#1597=CARTESIAN_POINT('',(0.185781637881696,0.00141079073233159,-0.011297));
#1598=CARTESIAN_POINT('',(0.185781637881696,-0.0545485842676684,-0.011297));
#1599=CARTESIAN_POINT('',(0.0143316378816962,-0.0545485842676684,-0.011297));
#1600=CARTESIAN_POINT('',(0.187681637881697,-0.0564485842676684,-0.005323));
#1601=CARTESIAN_POINT('',(0.187681637881697,-0.0564485842676684,-0.012));
#1602=CARTESIAN_POINT('',(0.189281637881696,-0.0564485842676684,-0.012));
#1603=CARTESIAN_POINT('',(0.0143316378816962,0.0633701657323316,-0.013073));
#1604=CARTESIAN_POINT('',(0.0143316378816962,0.0633701657323316,-0.013073));
#1605=CARTESIAN_POINT('',(0.139078537881696,0.0633701657323316,-0.004797));
#1606=CARTESIAN_POINT('',(0.139078537881696,0.0633701657323316,-0.004797));
#1607=CARTESIAN_POINT('',(0.0143316378816962,0.0633701657323316,-0.004797));
#1608=CARTESIAN_POINT('',(0.162158537881696,0.0633701657323316,-0.004797));
#1609=CARTESIAN_POINT('',(0.162158537881696,0.0633701657323316,-0.004797));
#1610=CARTESIAN_POINT('',(0.186781637881696,0.0633701657323316,-0.013073));
#1611=CARTESIAN_POINT('',(0.0143316378816962,-0.0605485842676684,-0.013073));
#1612=CARTESIAN_POINT('',(0.186781637881696,-0.0605485842676684,-0.000797));
#1613=CARTESIAN_POINT('',(0.191781637881696,0.00141079073233157,-0.013073));
#1614=CARTESIAN_POINT('',(0.191781637881696,-0.0555485842676684,-0.013073));
#1615=CARTESIAN_POINT('',(0.191781637881696,0.0583701657323316,-0.013073));
#1616=CARTESIAN_POINT('',(0.187681637881696,0.0592701657323316,-0.005323));
#1617=CARTESIAN_POINT('',(0.187681637881696,0.0592701657323316,-0.012));
#1618=CARTESIAN_POINT('',(0.189281637881696,0.0592701657323316,-0.012));
#1619=CARTESIAN_POINT('',(0.186781637881696,-0.0555485842676684,-0.013073));
#1620=CARTESIAN_POINT('',(0.186781637881696,0.0583701657323316,-0.013073));
#1621=CARTESIAN_POINT('',(0.139078537881696,0.0603701657323316,-0.004797));
#1622=CARTESIAN_POINT('',(0.139078537881696,0.0603701657323316,-0.004797));
#1623=CARTESIAN_POINT('',(0.162158537881696,0.0603701657323316,-0.004797));
#1624=CARTESIAN_POINT('',(0.162158537881696,0.0603701657323316,-0.004797));
#1625=CARTESIAN_POINT('',(0.0143316378816962,0.00141079073233157,-0.004797));
#1626=CARTESIAN_POINT('',(0.187681637881696,0.0592701657323316,-0.037));
#1627=CARTESIAN_POINT('',(0.187681637881696,0.0592701657323316,-0.012));
#1628=CARTESIAN_POINT('',(0.190281637881696,0.0592701657323316,-0.012));
#1629=CARTESIAN_POINT('',(0.0143316378816962,0.00141079073233157,-0.012));
#1630=CARTESIAN_POINT('',(0.187681637881697,-0.0564485842676684,-0.037));
#1631=CARTESIAN_POINT('',(0.187681637881697,-0.0564485842676684,-0.012));
#1632=CARTESIAN_POINT('',(0.190281637881696,-0.0564485842676684,-0.012));
#1633=CARTESIAN_POINT('',(0.0143316378816962,0.00141079073233157,-0.012));
#1634=CARTESIAN_POINT('',(0.0143316378816962,0.00141066573233156,0.));
#1635=CARTESIAN_POINT('',(0.0143316378816962,0.0613201657323316,-0.000797));
#1636=CARTESIAN_POINT('',(0.0151976632854807,0.0616201657323316,-0.025));
#1637=CARTESIAN_POINT('',(0.0160636886892651,0.0621201657323316,-0.0129575299461621));
#1638=CARTESIAN_POINT('',(0.0145048429624531,0.0612201657323316,-0.0129575299461621));
#1639=CARTESIAN_POINT('',(0.0158904836085082,0.0620201657323316,-0.0129575299461621));
#1640=CARTESIAN_POINT('',(0.0158904836085082,0.0620201657323316,-0.000797));
#1641=CARTESIAN_POINT('',(0.0158904836085082,0.0620201657323316,-0.00091247005383793));
#1642=CARTESIAN_POINT('',(0.0151976632854807,0.0616201657323316,-0.000912470053837929));
#1643=CARTESIAN_POINT('',(0.0145048429624531,0.0612201657323316,-0.00091247005383793));
#1644=CARTESIAN_POINT('',(0.0145048429624531,0.0612201657323316,-0.013073));
#1645=CARTESIAN_POINT('',(0.0151976632854807,0.0591201657323316,-0.025));
#1646=CARTESIAN_POINT('',(0.0151976632854807,0.0591201657323316,-0.000912470053837926));
#1647=CARTESIAN_POINT('',(0.0145048429624531,0.0595201657323316,-0.000912470053837926));
#1648=CARTESIAN_POINT('',(0.0158904836085082,0.0587201657323316,-0.000912470053837926));
#1649=CARTESIAN_POINT('',(0.0158904836085082,0.0587201657323316,-0.013073));
#1650=CARTESIAN_POINT('',(0.0158904836085082,0.0587201657323316,-0.0129575299461621));
#1651=CARTESIAN_POINT('',(0.0143316378816962,0.0596201657323316,-0.0129575299461621));
#1652=CARTESIAN_POINT('',(0.0145048429624531,0.0595201657323316,-0.0129575299461621));
#1653=CARTESIAN_POINT('',(0.0145048429624531,0.0595201657323316,-0.000797));
#1654=CARTESIAN_POINT('',(0.0160636886892651,0.0603701657323316,-0.025));
#1655=CARTESIAN_POINT('',(0.0160636886892651,0.0619201657323316,-0.013073));
#1656=CARTESIAN_POINT('',(0.0160636886892651,0.0619201657323316,-0.000997));
#1657=CARTESIAN_POINT('',(0.0160636886892651,0.0619201657323316,-0.012873));
#1658=CARTESIAN_POINT('',(0.0160636886892651,0.0586201657323316,-0.012873));
#1659=CARTESIAN_POINT('',(0.0160636886892651,0.0588201657323316,-0.012873));
#1660=CARTESIAN_POINT('',(0.0160636886892651,0.0588201657323316,-0.000797));
#1661=CARTESIAN_POINT('',(0.0160636886892651,0.0588201657323316,-0.000997));
#1662=CARTESIAN_POINT('',(0.0160636886892651,0.0603701657323316,-0.000997));
#1663=CARTESIAN_POINT('',(0.0151976632854807,-0.0562985842676684,-0.025));
#1664=CARTESIAN_POINT('',(0.0160636886892651,-0.0557985842676684,-0.0129575299461619));
#1665=CARTESIAN_POINT('',(0.0145048429624532,-0.0566985842676684,-0.0129575299461619));
#1666=CARTESIAN_POINT('',(0.0158904836085082,-0.0558985842676684,-0.0129575299461619));
#1667=CARTESIAN_POINT('',(0.0158904836085082,-0.0558985842676684,-0.000797));
#1668=CARTESIAN_POINT('',(0.0158904836085082,-0.0558985842676684,-0.000912470053838051));
#1669=CARTESIAN_POINT('',(0.0151976632854807,-0.0562985842676684,-0.000912470053838051));
#1670=CARTESIAN_POINT('',(0.0145048429624532,-0.0566985842676684,-0.000912470053838051));
#1671=CARTESIAN_POINT('',(0.0145048429624532,-0.0566985842676684,-0.013073));
#1672=CARTESIAN_POINT('',(0.0151976632854807,-0.0587985842676684,-0.025));
#1673=CARTESIAN_POINT('',(0.0151976632854807,-0.0587985842676684,-0.000912470053838051));
#1674=CARTESIAN_POINT('',(0.0145048429624532,-0.0583985842676685,-0.000912470053838052));
#1675=CARTESIAN_POINT('',(0.0158904836085082,-0.0591985842676684,-0.000912470053838052));
#1676=CARTESIAN_POINT('',(0.0158904836085082,-0.0591985842676684,-0.013073));
#1677=CARTESIAN_POINT('',(0.0158904836085082,-0.0591985842676684,-0.0129575299461619));
#1678=CARTESIAN_POINT('',(0.0143316378816963,-0.0582985842676685,-0.0129575299461619));
#1679=CARTESIAN_POINT('',(0.0145048429624532,-0.0583985842676685,-0.0129575299461619));
#1680=CARTESIAN_POINT('',(0.0145048429624532,-0.0583985842676685,-0.000797));
#1681=CARTESIAN_POINT('',(0.0160636886892651,-0.0575485842676684,-0.025));
#1682=CARTESIAN_POINT('',(0.0160636886892651,-0.0559985842676684,-0.013073));
#1683=CARTESIAN_POINT('',(0.0160636886892651,-0.0559985842676684,-0.000997));
#1684=CARTESIAN_POINT('',(0.0160636886892651,-0.0559985842676684,-0.012873));
#1685=CARTESIAN_POINT('',(0.0160636886892651,-0.0592985842676684,-0.012873));
#1686=CARTESIAN_POINT('',(0.0160636886892651,-0.0590985842676684,-0.012873));
#1687=CARTESIAN_POINT('',(0.0160636886892651,-0.0590985842676684,-0.000797));
#1688=CARTESIAN_POINT('',(0.0160636886892651,-0.0590985842676684,-0.000997));
#1689=CARTESIAN_POINT('',(0.0160636886892651,-0.0575485842676684,-0.000997));
#1690=CARTESIAN_POINT('',(0.0143316378816962,0.0613201657323316,0.));
#1691=CARTESIAN_POINT('',(0.0147027916261752,0.0611058800180459,-0.0127595812824399));
#1692=CARTESIAN_POINT('',(0.01401481003609,0.0615030863742791,-0.000422437127474837));
#1693=CARTESIAN_POINT('',(0.0151976632854807,0.0616201657323316,-0.0129575299461621));
#1694=CARTESIAN_POINT('',(0.0158904836085082,0.0620201657323316,-0.0129575299461621));
#1695=CARTESIAN_POINT('',(0.0158904836085082,0.0620201657323316,-0.025));
#1696=CARTESIAN_POINT('',(0.0158904836085082,0.0620201657323316,-0.00091247005383793));
#1697=CARTESIAN_POINT('',(0.0159482186354272,0.0619868323989983,-0.000940646702558622));
#1698=CARTESIAN_POINT('',(0.0160059536623461,0.0619534990656649,-0.000968823351279306));
#1699=CARTESIAN_POINT('',(0.0160636886892651,0.0619201657323316,-0.000997));
#1700=CARTESIAN_POINT('',(0.0160636886892651,0.0619201657323316,-0.012873));
#1701=CARTESIAN_POINT('',(0.0160059536623461,0.0619534990656649,-0.0129011766487207));
#1702=CARTESIAN_POINT('',(0.0159482186354272,0.0619868323989983,-0.0129293532974414));
#1703=CARTESIAN_POINT('',(0.0158904836085082,0.0620201657323316,-0.0129575299461621));
#1704=CARTESIAN_POINT('',(-0.0115810149422685,0.0462928219823315,-0.000797));
#1705=CARTESIAN_POINT('',(0.0158327485815892,0.0621201657323316,-0.000797));
#1706=CARTESIAN_POINT('',(0.0158904836085082,0.0620201657323316,-0.0129575299461621));
#1707=CARTESIAN_POINT('',(0.0160636886892651,0.0619201657323316,-0.012873));
#1708=CARTESIAN_POINT('',(0.0158327485815892,0.0621201657323316,-0.013073));
#1709=CARTESIAN_POINT('',(0.0162636886892651,0.0619201657323316,-0.013073));
#1710=CARTESIAN_POINT('',(0.0162636886892651,0.0619201657323316,-0.013073));
#1711=CARTESIAN_POINT('',(0.0160636886892651,0.0619201657323316,-0.000997));
#1712=CARTESIAN_POINT('',(0.0158904836085082,0.0620201657323316,-0.00091247005383793));
#1713=CARTESIAN_POINT('',(0.0162636886892651,0.0619201657323316,-0.000797));
#1714=CARTESIAN_POINT('',(0.0158327485815892,0.0621201657323316,-0.000797));
#1715=CARTESIAN_POINT('',(0.0160636886892651,0.0619201657323316,-0.000997));
#1716=CARTESIAN_POINT('',(0.0145048429624531,0.0595201657323316,-0.025));
#1717=CARTESIAN_POINT('',(0.0248280700822371,0.0654802836888443,-0.0112356971736229));
#1718=CARTESIAN_POINT('',(0.0147027916261752,0.0596344514466173,-0.0127595812824399));
#1719=CARTESIAN_POINT('',(0.0151976632854807,0.0591201657323316,-0.0129575299461621));
#1720=CARTESIAN_POINT('',(0.0158327485815892,0.0586201657323316,-0.013073));
#1721=CARTESIAN_POINT('',(0.0160636886892651,0.0603701657323316,-0.012873));
#1722=CARTESIAN_POINT('',(0.0160636886892651,0.0588201657323316,-0.012873));
#1723=CARTESIAN_POINT('',(0.0162636886892651,0.00141079073233157,-0.000797));
#1724=CARTESIAN_POINT('',(0.0162636886892651,0.0588201657323316,-0.000797));
#1725=CARTESIAN_POINT('',(0.0394793015989846,0.0449678219823317,-0.000797));
#1726=CARTESIAN_POINT('',(0.0158904836085082,0.0587201657323316,-0.000912470053837926));
#1727=CARTESIAN_POINT('',(0.0160636886892651,0.0588201657323316,-0.012873));
#1728=CARTESIAN_POINT('',(0.0158904836085082,0.0587201657323316,-0.0129575299461621));
#1729=CARTESIAN_POINT('',(0.0162636886892651,0.0588201657323316,-0.013073));
#1730=CARTESIAN_POINT('',(0.0158327485815892,0.0586201657323316,-0.013073));
#1731=CARTESIAN_POINT('',(0.0158904836085082,0.0587201657323316,-0.0129575299461621));
#1732=CARTESIAN_POINT('',(0.0159482186354272,0.0587534990656649,-0.0129293532974414));
#1733=CARTESIAN_POINT('',(0.0160059536623461,0.0587868323989983,-0.0129011766487207));
#1734=CARTESIAN_POINT('',(0.0160636886892651,0.0588201657323316,-0.012873));
#1735=CARTESIAN_POINT('',(0.0158904836085082,0.0587201657323316,-0.000912470053837926));
#1736=CARTESIAN_POINT('',(0.0160636886892651,0.0588201657323316,-0.000997));
#1737=CARTESIAN_POINT('',(0.0158327485815892,0.0586201657323316,-0.000797));
#1738=CARTESIAN_POINT('',(0.0162636886892651,0.0588201657323316,-0.000797));
#1739=CARTESIAN_POINT('',(0.0160636886892651,0.0588201657323316,-0.000997));
#1740=CARTESIAN_POINT('',(0.0160059536623461,0.0587868323989983,-0.000968823351279309));
#1741=CARTESIAN_POINT('',(0.0159482186354272,0.0587534990656649,-0.000940646702558617));
#1742=CARTESIAN_POINT('',(0.0158904836085082,0.0587201657323316,-0.000912470053837926));
#1743=CARTESIAN_POINT('',(0.0160636886892651,0.0588201657323316,-0.025));
#1744=CARTESIAN_POINT('',(0.0143316378816962,-0.0565985842676684,0.));
#1745=CARTESIAN_POINT('',(0.0147027916261753,-0.0568128699819539,-0.0127595812824396));
#1746=CARTESIAN_POINT('',(0.01401481003609,-0.0564156636257211,-0.00042243712747426));
#1747=CARTESIAN_POINT('',(0.0151976632854807,-0.0562985842676684,-0.0129575299461619));
#1748=CARTESIAN_POINT('',(0.0158904836085082,-0.0558985842676684,-0.0129575299461619));
#1749=CARTESIAN_POINT('',(0.0158904836085082,-0.0558985842676684,-0.025));
#1750=CARTESIAN_POINT('',(0.0158904836085082,-0.0558985842676684,-0.000912470053838051));
#1751=CARTESIAN_POINT('',(0.0159482186354272,-0.0559319176010017,-0.000940646702558702));
#1752=CARTESIAN_POINT('',(0.0160059536623461,-0.0559652509343351,-0.000968823351279348));
#1753=CARTESIAN_POINT('',(0.0160636886892651,-0.0559985842676684,-0.000997));
#1754=CARTESIAN_POINT('',(0.0160636886892651,-0.0559985842676684,-0.012873));
#1755=CARTESIAN_POINT('',(0.0160059536623461,-0.0559652509343351,-0.0129011766487207));
#1756=CARTESIAN_POINT('',(0.0159482186354272,-0.0559319176010017,-0.0129293532974413));
#1757=CARTESIAN_POINT('',(0.0158904836085082,-0.0558985842676684,-0.0129575299461619));
#1758=CARTESIAN_POINT('',(0.0394793015989848,-0.0421462405176684,-0.000797));
#1759=CARTESIAN_POINT('',(0.0158327485815892,-0.0557985842676685,-0.000797));
#1760=CARTESIAN_POINT('',(0.0158904836085082,-0.0558985842676684,-0.0129575299461619));
#1761=CARTESIAN_POINT('',(0.0160636886892651,-0.0559985842676684,-0.012873));
#1762=CARTESIAN_POINT('',(0.0158327485815892,-0.0557985842676685,-0.013073));
#1763=CARTESIAN_POINT('',(0.0162636886892651,-0.0559985842676684,-0.013073));
#1764=CARTESIAN_POINT('',(0.0162636886892651,-0.0559985842676684,-0.013073));
#1765=CARTESIAN_POINT('',(0.0160636886892651,-0.0559985842676684,-0.000997));
#1766=CARTESIAN_POINT('',(0.0158904836085082,-0.0558985842676684,-0.000912470053838051));
#1767=CARTESIAN_POINT('',(0.0162636886892651,-0.0559985842676684,-0.000797));
#1768=CARTESIAN_POINT('',(0.0158327485815892,-0.0557985842676685,-0.000797));
#1769=CARTESIAN_POINT('',(0.0160636886892651,-0.0559985842676684,-0.000997));
#1770=CARTESIAN_POINT('',(0.0145048429624532,-0.0583985842676685,-0.025));
#1771=CARTESIAN_POINT('',(0.0248280700822422,-0.0524384663111599,-0.0112356971736392));
#1772=CARTESIAN_POINT('',(0.0147027916261753,-0.058284298553383,-0.0127595812824396));
#1773=CARTESIAN_POINT('',(0.0151976632854807,-0.0587985842676684,-0.0129575299461619));
#1774=CARTESIAN_POINT('',(0.0158327485815892,-0.0592985842676684,-0.013073));
#1775=CARTESIAN_POINT('',(0.0160636886892651,-0.0575485842676684,-0.012873));
#1776=CARTESIAN_POINT('',(0.0160636886892651,-0.0590985842676684,-0.012873));
#1777=CARTESIAN_POINT('',(0.0162636886892651,0.00141079073233157,-0.000797));
#1778=CARTESIAN_POINT('',(0.0162636886892651,-0.0590985842676684,-0.000797));
#1779=CARTESIAN_POINT('',(-0.0115810149422684,-0.0434712405176684,-0.000797));
#1780=CARTESIAN_POINT('',(0.0158904836085082,-0.0591985842676684,-0.000912470053838052));
#1781=CARTESIAN_POINT('',(0.0160636886892651,-0.0590985842676684,-0.012873));
#1782=CARTESIAN_POINT('',(0.0158904836085082,-0.0591985842676684,-0.0129575299461619));
#1783=CARTESIAN_POINT('',(0.0162636886892651,-0.0590985842676684,-0.013073));
#1784=CARTESIAN_POINT('',(0.0158327485815892,-0.0592985842676684,-0.013073));
#1785=CARTESIAN_POINT('',(0.0158904836085082,-0.0591985842676684,-0.0129575299461619));
#1786=CARTESIAN_POINT('',(0.0159482186354272,-0.0591652509343351,-0.0129293532974413));
#1787=CARTESIAN_POINT('',(0.0160059536623461,-0.0591319176010017,-0.0129011766487206));
#1788=CARTESIAN_POINT('',(0.0160636886892651,-0.0590985842676684,-0.012873));
#1789=CARTESIAN_POINT('',(0.0158904836085082,-0.0591985842676684,-0.000912470053838052));
#1790=CARTESIAN_POINT('',(0.0160636886892651,-0.0590985842676684,-0.000997));
#1791=CARTESIAN_POINT('',(0.0158327485815892,-0.0592985842676684,-0.000797));
#1792=CARTESIAN_POINT('',(0.0162636886892651,-0.0590985842676684,-0.000797));
#1793=CARTESIAN_POINT('',(0.0160636886892651,-0.0590985842676684,-0.000997));
#1794=CARTESIAN_POINT('',(0.0160059536623461,-0.0591319176010017,-0.000968823351279351));
#1795=CARTESIAN_POINT('',(0.0159482186354272,-0.0591652509343351,-0.000940646702558701));
#1796=CARTESIAN_POINT('',(0.0158904836085082,-0.0591985842676684,-0.000912470053838052));
#1797=CARTESIAN_POINT('',(0.0160636886892651,-0.0590985842676684,-0.025));
#1798=MECHANICAL_DESIGN_GEOMETRIC_PRESENTATION_REPRESENTATION('',(#1083),
#1799);
#1799=(
GEOMETRIC_REPRESENTATION_CONTEXT(3)
GLOBAL_UNCERTAINTY_ASSIGNED_CONTEXT((#1800))
GLOBAL_UNIT_ASSIGNED_CONTEXT((#1803,#1802,#1801))
REPRESENTATION_CONTEXT('Part 2','TOP_LEVEL_ASSEMBLY_PART')
);
#1800=UNCERTAINTY_MEASURE_WITH_UNIT(LENGTH_MEASURE(2.E-5),#1803,
'DISTANCE_ACCURACY_VALUE','Maximum Tolerance applied to model');
#1801=(
NAMED_UNIT(*)
SI_UNIT($,.STERADIAN.)
SOLID_ANGLE_UNIT()
);
#1802=(
NAMED_UNIT(*)
PLANE_ANGLE_UNIT()
SI_UNIT($,.RADIAN.)
);
#1803=(
LENGTH_UNIT()
NAMED_UNIT(*)
SI_UNIT($,.METRE.)
);
#1804=PRODUCT_DEFINITION_SHAPE('','',#1805);
#1805=PRODUCT_DEFINITION('','',#1807,#1806);
#1806=PRODUCT_DEFINITION_CONTEXT('',#1813,'design');
#1807=PRODUCT_DEFINITION_FORMATION_WITH_SPECIFIED_SOURCE('','',#1809,
 .NOT_KNOWN.);
#1808=PRODUCT_RELATED_PRODUCT_CATEGORY('','',(#1809));
#1809=PRODUCT('Part 2','Part 2','Part 2',(#1811));
#1810=PRODUCT_CATEGORY('','');
#1811=PRODUCT_CONTEXT('',#1813,'mechanical');
#1812=APPLICATION_PROTOCOL_DEFINITION('international standard',
'ap242_managed_model_based_3d_engineering',2020,#1813);
#1813=APPLICATION_CONTEXT('managed model based 3d engineering');
ENDSEC;
END-ISO-10303-21;
